<?xml version="1.0" encoding="UTF-8"?>
<!DOCTYPE svg PUBLIC "-//W3C//DTD SVG 1.1//EN" "http://www.w3.org/Graphics/SVG/1.1/DTD/svg11.dtd">
<!-- Creator: CorelDRAW 2021 (64-Bit) -->
<svg xmlns="http://www.w3.org/2000/svg" xml:space="preserve" width="10in" height="8in" version="1.1" style="shape-rendering:geometricPrecision; text-rendering:geometricPrecision; image-rendering:optimizeQuality; fill-rule:evenodd; clip-rule:evenodd"
viewBox="0 0 10000 8000"
 xmlns:xlink="http://www.w3.org/1999/xlink"
 xmlns:xodm="http://www.corel.com/coreldraw/odm/2003">
 <defs>
  <style type="text/css">
   <![CDATA[
    .str0 {stroke:#757677;stroke-width:4.72;stroke-miterlimit:4}
    .str1 {stroke:#757677;stroke-width:3;stroke-miterlimit:4}
    .fil1 {fill:none}
    .fil5 {fill:#9C9FA1}
    .fil2 {fill:#5E6060}
    .fil3 {fill:#323231}
    .fil0 {fill:#594E64}
    .fil7 {fill:#F49C4F;fill-rule:nonzero}
    .fil8 {fill:#2A2A2A;fill-rule:nonzero}
    .fil6 {fill:url(#id0)}
    .fil4 {fill:url(#id1)}
   ]]>
  </style>
  <linearGradient id="id0" gradientUnits="userSpaceOnUse" x1="2963.41" y1="3424.11" x2="3914.19" y2="3424.11">
   <stop offset="0" style="stop-opacity:1; stop-color:#585757"/>
   <stop offset="1" style="stop-opacity:1; stop-color:#CCCDCC"/>
  </linearGradient>
  <linearGradient id="id1" gradientUnits="userSpaceOnUse" xlink:href="#id0" x1="3092.03" y1="3797.31" x2="3793.15" y2="3797.31">
  </linearGradient>
 </defs>
 <g id="Layer_x0020_1">
  <metadata id="CorelCorpID_0Corel-Layer"/>
  <g id="_2743362109888">
   <path class="fil0" d="M3013.99 3491.18c261.32,-96.01 623.38,-85.37 887.83,9.11 13.37,4.77 15.06,14.43 12.95,24.24 -11.11,51.9 -20.14,97.07 -36.34,149.16 -5.12,16.46 -14.5,31.56 -29.09,40.47 -8.3,6.5 -23.86,10.44 -36.73,10.29 -13.85,-0.23 -26.01,-5.4 -38.05,-9.42 -155.45,-52.06 -331.09,-68.75 -494.29,-44.98 -13.03,1.87 -71.68,9.86 -78.13,14.59l17.55 16.11c6.42,5.09 11.77,9.82 18.58,15.33l2.63 1.92 35.39 25.81 29.41 16.47c19.43,10.32 81.81,37.15 97.61,36.72 -0.08,0.08 -0.42,0.2 -1.05,0.31 23.35,-0.19 46.85,0.94 70.11,1.96 45.72,2 92.84,8.37 137.59,18.02 44.82,9.7 89.33,22.42 131.64,39.07 10.28,4.07 20.13,8.06 30.26,12.44 3.53,1.53 20.53,8.26 22.17,10.8 3.14,4.73 -1.41,6.41 -1.44,6.45 -1.45,10.13 -46,87.72 -53.47,100.47 -9.89,16.93 -18.92,31.41 -29.21,47.44 -9.74,15.25 -20.96,31.33 -40.01,37.07 -23.89,10.33 -40.43,2.15 -61.16,-5.2 -40.17,-14.19 -80.96,-22.68 -124.17,-26.86 -6.3,-0.63 -62.18,-4.35 -69.26,-2.2 -3.87,1.18 -1.83,-1.61 -3.48,2.27 2.86,1.6 9.94,11.26 12.67,14.04 5.13,5.2 7.95,9.27 12.64,13.61l20.3 21.46 5.17 5.48 28.7 28.4c24.83,22.28 32.49,28.7 62.69,50.02 16.58,11.73 17.72,10.75 31.8,17.44 4.38,2.07 1.8,-0.28 3.79,3.25 -5.9,10.99 -3.72,7.27 -11.78,16.74l-29.32 31.95c-4.74,5.51 -9.39,9.81 -14.36,15.18 -12.48,13.52 -41.49,47.98 -67.15,52.71 -2.78,2.35 -6.03,2.78 -9.93,3.71 -3.37,0.87 -7.2,1.56 -11.11,2.12 -21.47,3 -45.21,-0.23 -63.63,-9.7 -6.42,-3.29 -10.48,-5.2 -15.95,-9.27 -10.64,-7.94 -69.34,-68.64 -81.31,-82.8l-17.09 -20.25c-4.34,-5.01 -7.52,-8.84 -11.46,-13.72l-21.63 -27.61 -15.83 -19.24c-13.66,-17.29 -34.96,-47.01 -47.99,-65.9 -6.73,-9.74 -13.38,-19.32 -19.68,-29.65 -13.33,-21.97 -23.54,-36.64 -37.35,-61.16 -5.82,-10.37 -12.24,-19.83 -17.59,-31.72 -4.22,-9.44 -8.52,-31.1 -5.35,-40.6 0.93,-3.56 1.91,-8.09 3.41,-13.06 -26.25,-20.26 -38.26,-28.2 -54.06,-60.74 -3.52,-7.24 -6.81,-18.89 -10.56,-25.78l-9.85 -22.88c-2.94,-7.66 -5.87,-15.13 -8.88,-22.91 -16.67,-43.13 -33.94,-99.17 -45.84,-143.33 -11.03,-40.91 -15.56,-65.19 11.07,-97.65 4.97,-6.02 10.24,-10.4 16.7,-15.13 5.56,-4.07 13.54,-8.18 20.92,-10.87z"/>
   <path class="fil1 str0" d="M3013.99 3491.18c261.32,-96.01 623.38,-85.37 887.83,9.11 13.37,4.77 15.06,14.43 12.95,24.24 -11.11,51.9 -20.14,97.07 -36.34,149.16 -5.12,16.46 -14.5,31.56 -29.09,40.47 -8.3,6.5 -23.86,10.44 -36.73,10.29 -13.85,-0.23 -26.01,-5.4 -38.05,-9.42 -155.45,-52.06 -331.09,-68.75 -494.29,-44.98 -13.03,1.87 -71.68,9.86 -78.13,14.59l17.55 16.11c6.42,5.09 11.77,9.82 18.58,15.33l2.63 1.92 35.39 25.81 29.41 16.47c19.43,10.32 81.81,37.15 97.61,36.72 -0.08,0.08 -0.42,0.2 -1.05,0.31 23.35,-0.19 46.85,0.94 70.11,1.96 45.72,2 92.84,8.37 137.59,18.02 44.82,9.7 89.33,22.42 131.64,39.07 10.28,4.07 20.13,8.06 30.26,12.44 3.53,1.53 20.53,8.26 22.17,10.8 3.14,4.73 -1.41,6.41 -1.44,6.45 -1.45,10.13 -46,87.72 -53.47,100.47 -9.89,16.93 -18.92,31.41 -29.21,47.44 -9.74,15.25 -20.96,31.33 -40.01,37.07 -23.89,10.33 -40.43,2.15 -61.16,-5.2 -40.17,-14.19 -80.96,-22.68 -124.17,-26.86 -6.3,-0.63 -62.18,-4.35 -69.26,-2.2 -3.87,1.18 -1.83,-1.61 -3.48,2.27 2.86,1.6 9.94,11.26 12.67,14.04 5.13,5.2 7.95,9.27 12.64,13.61l20.3 21.46 5.17 5.48 28.7 28.4c24.83,22.28 32.49,28.7 62.69,50.02 16.58,11.73 17.72,10.75 31.8,17.44 4.38,2.07 1.8,-0.28 3.79,3.25 -5.9,10.99 -3.72,7.27 -11.78,16.74l-29.32 31.95c-4.74,5.51 -9.39,9.81 -14.36,15.18 -12.48,13.52 -41.49,47.98 -67.15,52.71 -2.78,2.35 -6.03,2.78 -9.93,3.71 -3.37,0.87 -7.2,1.56 -11.11,2.12 -21.47,3 -45.21,-0.23 -63.63,-9.7 -6.42,-3.29 -10.48,-5.2 -15.95,-9.27 -10.64,-7.94 -69.34,-68.64 -81.31,-82.8l-17.09 -20.25c-4.34,-5.01 -7.52,-8.84 -11.46,-13.72l-21.63 -27.61 -15.83 -19.24c-13.66,-17.29 -34.96,-47.01 -47.99,-65.9 -6.73,-9.74 -13.38,-19.32 -19.68,-29.65 -13.33,-21.97 -23.54,-36.64 -37.35,-61.16 -5.82,-10.37 -12.24,-19.83 -17.59,-31.72 -4.22,-9.44 -8.52,-31.1 -5.35,-40.6 0.93,-3.56 1.91,-8.09 3.41,-13.06 -26.25,-20.26 -38.26,-28.2 -54.06,-60.74 -3.52,-7.24 -6.81,-18.89 -10.56,-25.78l-9.85 -22.88c-2.94,-7.66 -5.87,-15.13 -8.88,-22.91 -16.67,-43.13 -33.94,-99.17 -45.84,-143.33 -11.03,-40.91 -15.56,-65.19 11.07,-97.65 4.97,-6.02 10.24,-10.4 16.7,-15.13 5.56,-4.07 13.54,-8.18 20.92,-10.87z"/>
   <path class="fil2" d="M3265.19 4176.28c1.41,2.81 21.12,25.19 24.4,29.26l15.29 16.38c3.83,3.91 6.3,8.06 10.29,11.65 4.38,3.99 6.5,6.57 10.21,10.56l21.15 21.51c38.95,41.72 60.19,51.74 120.46,43.68 25.65,-4.72 54.67,-39.18 67.15,-52.71 4.97,-5.35 9.62,-9.66 14.36,-15.18l29.33 -31.95c8.05,-9.47 5.87,-5.75 11.77,-16.74 -1.99,-3.51 0.58,-1.17 -3.8,-3.25 -14.08,-6.69 -15.21,-5.71 -31.83,-17.44 -30.15,-21.32 -37.82,-27.72 -62.65,-50.06l-28.7 -28.35 -25.46 -26.95c-4.69,-4.33 -7.5,-8.41 -12.63,-13.61 -2.74,-2.77 -9.82,-12.47 -12.67,-14.04 -2.78,-2.15 -4.19,-2.27 -7.47,-2.15 -2.2,0.08 -5.12,0.43 -7.43,0.59 -37.27,2.58 -115.8,12.75 -142.09,32.89 -10.2,7.86 -20.41,21.19 -23.42,40.24 -0.85,16.51 5.17,21.47 8.91,33.59 1.57,1.05 9.36,13.33 11.39,15.95 3.99,5.09 9.27,12.13 13.46,16.12z"/>
   <path class="fil1 str1" d="M3265.19 4176.28c1.41,2.81 21.12,25.19 24.4,29.26l15.29 16.38c3.83,3.91 6.3,8.06 10.29,11.65 4.38,3.99 6.5,6.57 10.21,10.56l21.15 21.51c38.95,41.72 60.19,51.74 120.46,43.68 25.65,-4.72 54.67,-39.18 67.15,-52.71 4.97,-5.35 9.62,-9.66 14.36,-15.18l29.33 -31.95c8.05,-9.47 5.87,-5.75 11.77,-16.74 -1.99,-3.51 0.58,-1.17 -3.8,-3.25 -14.08,-6.69 -15.21,-5.71 -31.83,-17.44 -30.15,-21.32 -37.82,-27.72 -62.65,-50.06l-28.7 -28.35 -25.46 -26.95c-4.69,-4.33 -7.5,-8.41 -12.63,-13.61 -2.74,-2.77 -9.82,-12.47 -12.67,-14.04 -2.78,-2.15 -4.19,-2.27 -7.47,-2.15 -2.2,0.08 -5.12,0.43 -7.43,0.59 -37.27,2.58 -115.8,12.75 -142.09,32.89 -10.2,7.86 -20.41,21.19 -23.42,40.24 -0.85,16.51 5.17,21.47 8.91,33.59 1.57,1.05 9.36,13.33 11.39,15.95 3.99,5.09 9.27,12.13 13.46,16.12z"/>
   <path class="fil3" d="M3457.43 4088.16l-20.3 -21.47c-4.69,-4.33 -7.5,-8.37 -12.63,-13.6 -2.74,-2.78 -9.78,-12.44 -12.64,-14 -2.77,-2.2 -4.18,-2.27 -7.47,-2.2 -2.23,0.08 -5.12,0.43 -7.43,0.59 -37.3,2.62 -115.8,12.75 -142.07,32.89 -10.21,7.86 -20.45,21.2 -23.47,40.24 -0.87,16.51 5.17,21.47 8.96,33.59 1.56,1.06 9.35,13.33 11.34,15.96l1.87 2.38 0.43 0.08c-2.66,-48.77 120.33,-66.84 203.4,-74.46z"/>
   <path class="fil1 str1" d="M3457.43 4088.16l-20.3 -21.47c-4.69,-4.33 -7.5,-8.37 -12.63,-13.6 -2.74,-2.78 -9.78,-12.44 -12.64,-14 -2.77,-2.2 -4.18,-2.27 -7.47,-2.2 -2.23,0.08 -5.12,0.43 -7.43,0.59 -37.3,2.62 -115.8,12.75 -142.07,32.89 -10.21,7.86 -20.45,21.2 -23.47,40.24 -0.87,16.51 5.17,21.47 8.96,33.59 1.56,1.06 9.35,13.33 11.34,15.96l1.87 2.38 0.43 0.08c-2.66,-48.77 120.33,-66.84 203.4,-74.46z"/>
   <path class="fil2" d="M3064.94 3848.17c3.13,5.63 11.02,12.47 15.44,17.09 3.99,4.13 4.85,4.49 8.72,7.69 3.09,2.5 6.69,4.7 9.27,7.7 5.83,-8.17 7.35,-11.69 14.7,-17.75 6.57,-5.4 12.59,-8.84 21.67,-12.28 35.82,-13.72 267.02,-51.97 268.55,-53.61 -15.8,0.42 -78.14,-26.41 -97.57,-36.73l-29.41 -16.46 -38.05 -27.73c-6.81,-5.52 -12.13,-10.25 -18.58,-15.33l-17.56 -16.12c-8.99,0 -28.82,5.75 -38.17,8.06 -17.64,4.35 -55.77,14.2 -71.93,20.02 -7.81,2.86 -16.03,7.09 -22.76,12.36l-4.92 3.71c-0.15,0.08 -0.63,0.59 -0.71,0.39 -0.11,-0.23 -0.46,0.28 -0.74,0.35 -2.54,3.87 -5.28,5.43 -8.76,9.82 -2.27,2.89 -4.54,7.94 -7.63,10.17 -2.7,8.09 -7.7,14.67 -9.19,25.42 -1.33,9.89 0.67,20.57 3.48,29.18 4.76,14.93 15.53,35.82 24.13,44.04z"/>
   <path class="fil1 str1" d="M3064.94 3848.17c3.13,5.63 11.02,12.47 15.44,17.09 3.99,4.13 4.85,4.49 8.72,7.69 3.09,2.5 6.69,4.7 9.27,7.7 5.83,-8.17 7.35,-11.69 14.7,-17.75 6.57,-5.4 12.59,-8.84 21.67,-12.28 35.82,-13.72 267.02,-51.97 268.55,-53.61 -15.8,0.42 -78.14,-26.41 -97.57,-36.73l-29.41 -16.46 -38.05 -27.73c-6.81,-5.52 -12.13,-10.25 -18.58,-15.33l-17.56 -16.12c-8.99,0 -28.82,5.75 -38.17,8.06 -17.64,4.35 -55.77,14.2 -71.93,20.02 -7.81,2.86 -16.03,7.09 -22.76,12.36l-4.92 3.71c-0.15,0.08 -0.63,0.59 -0.71,0.39 -0.11,-0.23 -0.46,0.28 -0.74,0.35 -2.54,3.87 -5.28,5.43 -8.76,9.82 -2.27,2.89 -4.54,7.94 -7.63,10.17 -2.7,8.09 -7.7,14.67 -9.19,25.42 -1.33,9.89 0.67,20.57 3.48,29.18 4.76,14.93 15.53,35.82 24.13,44.04z"/>
   <path class="fil3" d="M3240.9 3718l-2.61 -1.92c-6.81,-5.48 -12.17,-10.21 -18.58,-15.29l-17.56 -16.15c-9.04,0.04 -28.82,5.79 -38.17,8.09 -17.69,4.34 -55.81,14.15 -71.93,20.02 -7.86,2.81 -16.03,7.04 -22.76,12.36l-4.96 3.68c-0.12,0.08 -0.59,0.59 -0.71,0.39 -0.11,-0.2 -0.46,0.28 -0.7,0.39 -2.58,3.84 -5.32,5.44 -8.76,9.82 -2.31,2.89 -4.58,7.94 -7.63,10.12 -2.7,8.1 -7.75,14.67 -9.19,25.46 -1.37,9.85 0.67,20.53 3.44,29.18 0.63,2 1.41,4.1 2.23,6.25 3.37,-46.81 117.56,-82.2 197.89,-92.41z"/>
   <path class="fil1 str1" d="M3240.9 3718l-2.61 -1.92c-6.81,-5.48 -12.17,-10.21 -18.58,-15.29l-17.56 -16.15c-9.04,0.04 -28.82,5.79 -38.17,8.09 -17.69,4.34 -55.81,14.15 -71.93,20.02 -7.86,2.81 -16.03,7.04 -22.76,12.36l-4.96 3.68c-0.12,0.08 -0.59,0.59 -0.71,0.39 -0.11,-0.2 -0.46,0.28 -0.7,0.39 -2.58,3.84 -5.32,5.44 -8.76,9.82 -2.31,2.89 -4.58,7.94 -7.63,10.12 -2.7,8.1 -7.75,14.67 -9.19,25.46 -1.37,9.85 0.67,20.53 3.44,29.18 0.63,2 1.41,4.1 2.23,6.25 3.37,-46.81 117.56,-82.2 197.89,-92.41z"/>
   <path class="fil4" d="M3373.78 3798.32c-5.83,0.4 -24.09,2.94 -28.39,3.21l0 0c-58.35,4.15 -161.8,27.8 -218.81,51.39l0 0c-28.39,11.74 -31.95,37.58 -35.47,50.61l0 0c-3.17,9.5 1.09,31.2 5.35,40.59l0 0c5.37,11.88 11.77,21.35 17.6,31.72l0 0c13.77,24.52 24.01,39.22 37.35,61.16l0 0c6.3,10.37 12.95,19.96 19.63,29.66l0 0c13.03,18.88 34.33,48.61 48.02,65.89l0 0 15.8 19.24 -3.64 -8.52c-3.87,-7.74 -5.32,-13.72 -7.58,-22.99l0 0 -0.15 -9.74c0.97,-9.08 2.15,-14.82 5.51,-22.26l0 0c1.69,-3.63 2.89,-5.48 5.32,-8.87l0 0c1.8,-2.55 4.81,-5.83 6.17,-8.37l0 0c3.6,-2.07 8.21,-7.24 13.26,-10.52l0 0c4.65,-3.09 11.19,-6.26 16.89,-8.34l0 0c10.6,-3.79 27.88,-8.63 39.31,-10.63l0 0c8.13,-0.79 19.31,-3.91 27.83,-5.44l0 0c9.9,-1.72 19.68,-3.08 29.72,-4.18l0 0c19.17,-2.07 43.92,-4.58 63.17,-3.45l0 0 48.1 2.47 49.97 6.69c28.44,4.92 65.17,14.08 91.33,24.6l0 0c28.19,11.3 34.02,5.63 49.86,8.83l0 0c19.05,-5.79 30.23,-21.81 40.01,-37.07l0 0c10.28,-16.07 19.31,-30.51 29.17,-47.43l0 0c7.47,-12.8 52.06,-90.38 53.5,-100.52l0 0c0,-0.03 4.58,-1.72 1.45,-6.45l0 0c-1.69,-2.5 -18.69,-9.27 -22.22,-10.8l0 0c-10.09,-4.33 -19.94,-8.36 -30.23,-12.43l0 0c-42.27,-16.63 -86.82,-29.38 -131.63,-39.07l0 0c-44.71,-9.66 -91.87,-16.03 -137.58,-17.98l0 0c-21.43,-0.98 -43.1,-1.99 -64.64,-1.99l0 0c-11.39,0 -22.72,0.26 -33.99,1.01l0 0z"/>
   <path class="fil1 str1" d="M3223.61 4120.25l-0.16 -9.7c0.98,-9.08 2.2,-14.82 5.56,-22.26 1.64,-3.67 2.86,-5.51 5.28,-8.91 1.81,-2.54 4.85,-5.82 6.22,-8.37 3.6,-2.03 8.21,-7.19 13.22,-10.52 4.69,-3.08 11.19,-6.22 16.93,-8.29 10.6,-3.83 27.88,-8.68 39.26,-10.68 8.14,-0.78 19.32,-3.91 27.85,-5.4 9.89,-1.75 19.67,-3.13 29.76,-4.22 19.13,-2.03 43.92,-4.57 63.12,-3.39l48.15 2.41 49.98 6.69c28.39,4.93 65.15,14.13 91.27,24.6 28.2,11.35 34.04,5.63 49.87,8.85 19.04,-5.75 30.27,-21.83 40.01,-37.08 10.29,-16.07 19.32,-30.54 29.21,-47.44 7.47,-12.75 52.02,-90.37 53.47,-100.5 0.03,0 4.58,-1.72 1.44,-6.45 -1.64,-2.5 -18.65,-9.27 -22.17,-10.8 -10.13,-4.38 -19.99,-8.37 -30.26,-12.39 -42.31,-16.66 -86.82,-29.38 -131.64,-39.07 -44.7,-9.7 -91.87,-16.07 -137.59,-18.04 -32.77,-1.44 -66.05,-3.08 -98.63,-0.93 -5.82,0.39 -24.09,2.89 -28.39,3.2 -58.34,4.15 -161.78,27.8 -218.81,51.35 -28.39,11.73 -31.95,37.62 -35.46,50.64 -3.17,9.51 1.13,31.17 5.35,40.56 5.35,11.89 11.77,21.35 17.59,31.72 13.81,24.52 24.01,39.22 37.35,61.2 6.3,10.32 12.95,19.87 19.68,29.6 13.03,18.89 34.33,48.61 47.99,65.89l15.83 19.29 -3.67 -8.57c-3.91,-7.74 -5.32,-13.69 -7.59,-22.99z"/>
   <path class="fil5" d="M3029.89 3803.95c3.71,6.89 7.04,18.57 10.52,25.78 15.84,32.57 27.88,40.51 54.17,60.8 2.74,-7.3 2.89,-4.38 3.79,-9.85 -2.58,-3.05 -6.17,-5.2 -9.27,-7.74 -3.87,-3.17 -4.73,-3.53 -8.68,-7.7 -4.42,-4.62 -12.36,-11.46 -15.48,-17.09 -8.6,-8.17 -19.36,-29.1 -24.13,-44 -2.77,-8.63 -4.81,-19.31 -3.48,-29.17 1.48,-10.8 6.5,-17.37 9.23,-25.46 3.05,-2.19 5.32,-7.24 7.58,-10.13 3.48,-4.38 6.22,-5.97 8.76,-9.81 0.28,-0.12 0.63,-0.59 0.75,-0.39 0.08,0.23 0.54,-0.28 0.7,-0.4l4.97 -3.67c6.73,-5.32 14.9,-9.55 22.72,-12.36 16.15,-5.87 54.28,-15.69 71.91,-20.02 9.35,-2.31 29.18,-8.06 38.17,-8.06 6.5,-4.77 65.16,-12.72 78.14,-14.62 163.24,-23.78 338.87,-7.04 494.32,44.97 12.05,4.02 24.17,9.22 38.06,9.43 12.86,0.19 28.42,-3.79 36.68,-10.26 -1.57,-1.41 -1.73,-0.85 -3.52,-0.74 -0.7,0.05 -3.72,0.63 -4.66,0.79 -40.86,7 -70.83,-10.21 -109.61,-20.61 -26.01,-6.85 -49.56,-13.57 -76.34,-19.09 -14.74,-3.05 -29.8,-5.82 -45.13,-8.4 -15.53,-2.58 -31.02,-4.7 -46.94,-6.73 -36.25,-3.6 -69.45,-7.27 -106.21,-7.94 -20.57,-0.39 -40.64,0.28 -61.05,0.24 -40.47,-0.36 -87.83,6.53 -128.12,12.16l-15.36 2.12c-36.06,6.1 -71.46,13.8 -106.61,22.79 -34.89,8.96 -73.52,17.69 -91.9,38.06 -3.73,2.58 -14.71,16.03 -15.84,22.17 -1.89,1.48 -0.56,-0.16 -2.43,2.63 -0.15,0.19 -1.41,2.77 -1.48,2.97 -2.2,5.15 -5.17,13.6 -6.18,18.77 -2.74,13.96 0.27,18.5 1.95,30.58zm204.96 347.83l21.67 27.65c3.94,4.85 7.11,8.72 11.42,13.72l17.13 20.22c11.96,14.16 70.63,74.9 81.3,82.79 5.43,4.07 9.54,5.99 15.95,9.27 18.43,9.47 42.16,12.72 63.63,9.7 3.91,-0.54 7.75,-1.25 11.07,-2.07 3.91,-0.98 7.16,-1.41 9.98,-3.75 -60.31,8.05 -81.5,-1.96 -120.46,-43.69l-21.15 -21.47c-3.71,-3.98 -5.86,-6.61 -10.24,-10.56 -3.99,-3.6 -6.45,-7.78 -10.25,-11.69l-15.29 -16.39c-3.33,-4.02 -22.99,-26.44 -24.4,-29.26 -4.22,-3.99 -9.51,-10.98 -13.46,-16.11 -2.03,-2.58 -9.81,-14.9 -11.37,-15.96 -3.76,-12.12 -9.82,-17.08 -8.93,-33.59 2.97,-19.04 13.23,-32.38 23.43,-40.21 26.28,-20.17 104.81,-30.31 142.09,-32.92 2.3,-0.16 5.23,-0.51 7.43,-0.59 3.28,-0.07 4.69,0 7.47,2.2 1.64,-3.88 -0.43,-1.14 3.44,-2.31 7.12,-2.12 63.01,1.6 69.26,2.19 43.26,4.22 84.04,12.67 124.2,26.91 20.69,7.31 37.27,15.53 61.17,5.2 -15.84,-3.24 -21.7,2.51 -49.86,-8.83 -26.16,-10.52 -62.92,-19.71 -91.32,-24.63l-49.98 -6.65 -48.15 -2.46c-27.6,-1.64 -64.92,2.74 -92.87,7.63 -21.75,3.83 -46.54,8.68 -67.11,16.07 -5.75,2.11 -12.24,5.23 -16.89,8.33 -5.04,3.33 -9.66,8.44 -13.26,10.52 -1.36,2.54 -4.38,5.83 -6.17,8.37 -2.43,3.4 -3.68,5.24 -5.32,8.88 -3.36,7.46 -4.58,13.18 -5.51,22.25l0.15 9.73c2.23,9.31 3.67,15.25 7.55,23l3.67 8.52z"/>
   <path class="fil1 str1" d="M3029.89 3803.95c3.71,6.89 7.04,18.57 10.52,25.78 15.84,32.57 27.88,40.51 54.17,60.8 2.74,-7.3 2.89,-4.38 3.79,-9.85 -2.58,-3.05 -6.17,-5.2 -9.27,-7.74 -3.87,-3.17 -4.73,-3.53 -8.68,-7.7 -4.42,-4.62 -12.36,-11.46 -15.48,-17.09 -8.6,-8.17 -19.36,-29.1 -24.13,-44 -2.77,-8.63 -4.81,-19.31 -3.48,-29.17 1.48,-10.8 6.5,-17.37 9.23,-25.46 3.05,-2.19 5.32,-7.24 7.58,-10.13 3.48,-4.38 6.22,-5.97 8.76,-9.81 0.28,-0.12 0.63,-0.59 0.75,-0.39 0.08,0.23 0.54,-0.28 0.7,-0.4l4.97 -3.67c6.73,-5.32 14.9,-9.55 22.72,-12.36 16.15,-5.87 54.28,-15.69 71.91,-20.02 9.35,-2.31 29.18,-8.06 38.17,-8.06 6.5,-4.77 65.16,-12.72 78.14,-14.62 163.24,-23.78 338.87,-7.04 494.32,44.97 12.05,4.02 24.17,9.22 38.06,9.43 12.86,0.19 28.42,-3.79 36.68,-10.26 -1.57,-1.41 -1.73,-0.85 -3.52,-0.74 -0.7,0.05 -3.72,0.63 -4.66,0.79 -40.86,7 -70.83,-10.21 -109.61,-20.61 -26.01,-6.85 -49.56,-13.57 -76.34,-19.09 -14.74,-3.05 -29.8,-5.82 -45.13,-8.4 -15.53,-2.58 -31.02,-4.7 -46.94,-6.73 -36.25,-3.6 -69.45,-7.27 -106.21,-7.94 -20.57,-0.39 -40.64,0.28 -61.05,0.24 -40.47,-0.36 -87.83,6.53 -128.12,12.16l-15.36 2.12c-36.06,6.1 -71.46,13.8 -106.61,22.79 -34.89,8.96 -73.52,17.69 -91.9,38.06 -3.73,2.58 -14.71,16.03 -15.84,22.17 -1.89,1.48 -0.56,-0.16 -2.43,2.63 -0.15,0.19 -1.41,2.77 -1.48,2.97 -2.2,5.15 -5.17,13.6 -6.18,18.77 -2.74,13.96 0.27,18.5 1.95,30.58zm204.96 347.83l21.67 27.65c3.94,4.85 7.11,8.72 11.42,13.72l17.13 20.22c11.96,14.16 70.63,74.9 81.3,82.79 5.43,4.07 9.54,5.99 15.95,9.27 18.43,9.47 42.16,12.72 63.63,9.7 3.91,-0.54 7.75,-1.25 11.07,-2.07 3.91,-0.98 7.16,-1.41 9.98,-3.75 -60.31,8.05 -81.5,-1.96 -120.46,-43.69l-21.15 -21.47c-3.71,-3.98 -5.86,-6.61 -10.24,-10.56 -3.99,-3.6 -6.45,-7.78 -10.25,-11.69l-15.29 -16.39c-3.33,-4.02 -22.99,-26.44 -24.4,-29.26 -4.22,-3.99 -9.51,-10.98 -13.46,-16.11 -2.03,-2.58 -9.81,-14.9 -11.37,-15.96 -3.76,-12.12 -9.82,-17.08 -8.93,-33.59 2.97,-19.04 13.23,-32.38 23.43,-40.21 26.28,-20.17 104.81,-30.31 142.09,-32.92 2.3,-0.16 5.23,-0.51 7.43,-0.59 3.28,-0.07 4.69,0 7.47,2.2 1.64,-3.88 -0.43,-1.14 3.44,-2.31 7.12,-2.12 63.01,1.6 69.26,2.19 43.26,4.22 84.04,12.67 124.2,26.91 20.69,7.31 37.27,15.53 61.17,5.2 -15.84,-3.24 -21.7,2.51 -49.86,-8.83 -26.16,-10.52 -62.92,-19.71 -91.32,-24.63l-49.98 -6.65 -48.15 -2.46c-27.6,-1.64 -64.92,2.74 -92.87,7.63 -21.75,3.83 -46.54,8.68 -67.11,16.07 -5.75,2.11 -12.24,5.23 -16.89,8.33 -5.04,3.33 -9.66,8.44 -13.26,10.52 -1.36,2.54 -4.38,5.83 -6.17,8.37 -2.43,3.4 -3.68,5.24 -5.32,8.88 -3.36,7.46 -4.58,13.18 -5.51,22.25l0.15 9.73c2.23,9.31 3.67,15.25 7.55,23l3.67 8.52z"/>
   <path class="fil6" d="M3014.02 3491.17c-7.39,2.7 -15.41,6.85 -20.93,10.92l0 0c-6.49,4.72 -11.73,9.07 -16.7,15.09l0 0c-26.63,32.5 -22.14,56.75 -11.11,97.7l0 0c11.89,44.14 29.21,100.15 45.87,143.28l0 0c2.97,7.78 5.95,15.26 8.88,22.93l0 0 9.9 22.87c-1.73,-12.04 -4.73,-16.57 -2,-30.57l0 0c1.01,-5.12 3.99,-13.61 6.22,-18.78l0 0c0.03,-0.19 1.29,-2.77 1.44,-2.97l0 0c1.89,-2.74 0.56,-1.13 2.43,-2.62l0 0c1.13,-6.14 12.16,-19.6 15.84,-22.17l0 0c18.38,-20.38 56.98,-29.1 91.9,-38.01l0 0c35.15,-9.04 70.55,-16.74 106.57,-22.85l0 0 15.45 -2.11c40.24,-5.63 87.63,-12.52 128.07,-12.16l0 0c8.17,0.04 16.31,-0.07 24.48,-0.2l0 0c12.13,-0.11 24.26,-0.28 36.57,-0.04l0 0c36.76,0.67 69.96,4.33 106.21,7.94l0 0c15.92,2 31.41,4.1 46.94,6.73l0 0c42.04,7.07 80.28,16.65 121.46,27.5l0 0c38.83,10.4 68.76,27.6 109.66,20.61l0 0c0.9,-0.15 3.91,-0.79 4.61,-0.79l0 0c3.41,-0.19 1.96,-0.67 3.53,0.71l0 0c14.62,-8.88 24.01,-23.98 29.13,-40.48l0 0c16.19,-52.09 25.22,-97.26 36.29,-149.16l0 0c2.15,-9.81 0.47,-19.43 -12.94,-24.24l0 0c-139.03,-49.67 -305.13,-76.18 -469.29,-76.18l0 0c-148.07,0 -294.57,21.55 -418.5,67.07l0 0z"/>
   <path class="fil1 str1" d="M3029.89 3803.95c-1.69,-12.08 -4.69,-16.63 -1.95,-30.58 1.01,-5.17 3.98,-13.61 6.18,-18.77 0.08,-0.2 1.33,-2.78 1.48,-2.97 1.87,-2.78 0.54,-1.14 2.43,-2.63 1.13,-6.14 12.11,-19.59 15.84,-22.17 18.38,-20.37 57.01,-29.1 91.9,-38.06 35.15,-8.99 70.55,-16.69 106.61,-22.79l15.36 -2.12c40.29,-5.63 87.65,-12.52 128.12,-12.16 20.41,0.04 40.47,-0.62 61.05,-0.24 36.76,0.67 69.96,4.33 106.21,7.94 15.92,2.03 31.41,4.15 46.94,6.73 41.99,7.07 80.28,16.62 121.47,27.49 38.79,10.4 68.75,27.6 109.61,20.61 0.94,-0.15 3.96,-0.74 4.66,-0.79 3.4,-0.19 1.95,-0.67 3.52,0.74 14.58,-8.91 24.01,-24.04 29.09,-40.51 16.23,-52.09 25.26,-97.26 36.37,-149.13 2.07,-9.85 0.43,-19.51 -12.95,-24.28 -264.48,-94.45 -626.54,-105.13 -887.82,-9.11 -7.39,2.73 -15.41,6.84 -20.96,10.91 -6.42,4.73 -11.73,9.11 -16.66,15.1 -26.63,32.49 -22.14,56.74 -11.11,97.64 11.93,44.2 29.21,100.2 45.87,143.37 2.97,7.75 5.94,15.22 8.85,22.88l9.89 22.88z"/>
   <path class="fil7" d="M4228.43 3983.84c-10.95,0 -16.46,-4.07 -16.46,-12.16l0 -2.15c0,-4.74 4.65,-12.28 13.96,-22.53 9.31,-10.24 13.96,-20.84 13.96,-31.84l0 -370.51c0,-11.42 -4.64,-22.17 -13.96,-32.18 -9.31,-10.01 -13.96,-17.4 -13.96,-22.17l0 -2.86c0,-7.63 5.23,-11.42 15.72,-11.42l324.05 0c12.87,0 20.25,6.89 22.17,20.73l17.13 83.69c2.43,12.39 -2.57,18.58 -14.98,18.58l-3.59 0c-7.16,0 -14.9,-4.15 -23.24,-12.52 -8.37,-8.33 -15.72,-17.41 -22.17,-27.18 -6.42,-9.74 -14.67,-18.81 -24.68,-27.19 -10.01,-8.32 -20.3,-12.52 -30.74,-12.52l-94.41 0c-18.61,0 -27.93,10.02 -27.93,30.04l0 174.54 95.86 0c6.65,0 12.98,-2.74 18.92,-8.25 5.99,-5.44 10.64,-11.54 13.97,-18.22 3.33,-6.65 7.15,-12.75 11.45,-18.23 4.27,-5.48 8.6,-8.24 12.87,-8.24l5.71 0c8.09,0 12.16,5.28 12.16,15.75l0 115.13c0,10.01 -4.07,15.06 -12.16,15.06l-5.71 0c-4.27,0 -8.6,-2.61 -12.87,-7.86 -4.3,-5.28 -8.13,-10.99 -11.45,-17.17 -3.33,-6.21 -7.98,-11.92 -13.97,-17.16 -5.94,-5.28 -12.27,-7.9 -18.92,-7.9l-95.86 0 0 148.06c0,11 5.12,21.59 15.37,31.84 10.24,10.24 15.37,17.79 15.37,22.53l0 2.15c0,8.09 -5.71,12.16 -17.17,12.16l-134.44 0z"/>
   <path class="fil7" d="M4895.79 3944.51c32.93,0 59.4,-12.16 79.39,-36.49 20.02,-24.32 30.03,-55.3 30.03,-93 0,-46.69 -7.86,-93.07 -23.61,-139.1 -15.73,-45.99 -37.67,-84.27 -65.78,-114.78 -28.12,-30.51 -58.39,-45.8 -90.85,-45.8 -32.89,0 -58.98,11.93 -78.3,35.78 -19.35,23.86 -28.98,55.53 -28.98,95.11 0,48.65 7.75,95.85 23.24,141.64 15.52,45.76 37.07,83.3 64.72,112.63 27.65,29.33 57.72,44 90.15,44zm-30.07 46.5c-71.49,0 -131.6,-25.02 -180.21,-75.08 -48.66,-50.1 -72.94,-111.61 -72.94,-184.55 0,-77.28 23.24,-140.32 69.73,-189.21 46.46,-48.89 106.92,-73.32 181.31,-73.32 71.54,0 131.13,25.42 178.8,76.18 47.72,50.8 71.54,113.37 71.54,187.76 0,74.85 -23.7,136.64 -71.14,185.25 -47.48,48.65 -106.5,72.97 -177.08,72.97z"/>
   <path class="fil7" d="M5344.22 3748.52l30.74 0c27.19,0 49,-8.44 65.46,-25.37 16.46,-16.94 24.68,-41.85 24.68,-74.77 0,-39.11 -11.34,-70.32 -33.98,-93.71 -22.65,-23.35 -48.73,-35.04 -78.3,-35.04l-24.32 0c-16.23,0 -24.33,10.72 -24.33,32.19l0 148.77c0,17.17 3.22,29.46 9.67,36.84 6.41,7.44 16.54,11.11 30.39,11.11zm228.16 166.64c6.17,9.54 13.72,17.79 22.52,24.68 8.84,6.92 15.84,12.39 21.12,16.46 5.24,4.07 7.86,8.49 7.86,13.23l0 2.15c0,8.13 -5.48,12.16 -16.46,12.16l-149.47 0c-10.48,0 -15.72,-4.04 -15.72,-12.16l0 -2.15c0,-4.27 2.69,-9.16 8.2,-14.67 5.44,-5.48 9.31,-10.48 11.46,-15.02 2.12,-4.54 0.79,-12.75 -3.95,-24.68l-75.13 -124.44 -78.65 1.44 0 123c0,10.99 5.09,21.58 15.37,31.84 10.24,10.24 15.37,17.79 15.37,22.53l0 2.15c0,8.13 -5.71,12.16 -17.16,12.16l-134.46 0c-10.52,0 -15.76,-4.04 -15.76,-12.16l0 -2.15c0,-4.74 4.54,-12.28 13.61,-22.53 9.08,-10.26 13.61,-20.85 13.61,-31.84l0 -370.51c0,-10.95 -4.53,-21.55 -13.61,-31.79 -9.07,-10.29 -13.61,-17.76 -13.61,-22.57l0 -2.85c0,-7.63 5.24,-11.42 15.76,-11.42l176.65 0c66.29,0 118.85,13.57 157.76,40.75 38.83,27.17 58.51,66.99 58.98,119.43 0,29.1 -8.44,55.93 -25.37,80.49 -16.98,24.56 -41.15,43.52 -72.63,56.86l93.71 141.61z"/>
   <path class="fil7" d="M5760.5 3983.84c-10.52,0 -15.72,-4.07 -15.72,-12.16l0 -2.15c0,-4.74 4.78,-12.28 14.31,-22.53 9.51,-10.24 14.28,-20.84 14.28,-31.84l0 -392.68 -57.21 0c-10.01,0 -19.04,4.3 -27.18,12.9 -8.09,8.57 -14.39,18.11 -18.93,28.59 -4.57,10.48 -9.9,20.02 -16.12,28.63 -6.22,8.57 -12.39,12.87 -18.58,12.87l-10.01 0c-12.39,0 -17.39,-6.19 -15.05,-18.61l12.87 -90.85c1.92,-13.3 9.54,-19.99 22.91,-19.99l362.65 0c13.3,0 20.96,6.69 22.88,19.99l15.02 91.59c0.98,5.71 0.11,10.12 -2.5,13.21 -2.63,3.13 -6.57,4.66 -11.82,4.66l-10.71 0c-6.19,0 -12.56,-4.3 -18.97,-12.87 -6.45,-8.6 -12.05,-18.15 -16.78,-28.63 -4.76,-10.48 -11.34,-20.02 -19.67,-28.59 -8.37,-8.6 -17.52,-12.9 -27.54,-12.9l-57.96 0 0 392.68c0,11 5.01,21.59 15.02,31.84 10.01,10.24 15.02,17.79 15.02,22.53l0 2.15c0,8.09 -5.48,12.16 -16.47,12.16l-133.75 0z"/>
   <path class="fil7" d="M6319.13 3991c-63.91,0 -115.26,-17.64 -154.12,-52.96 -38.91,-35.28 -58.31,-84.63 -58.31,-148.06l0 -245.31c0,-10.95 -4.66,-21.55 -13.93,-31.84 -9.31,-10.24 -14,-17.76 -14,-22.52l0 -2.86c0,-7.63 5.52,-11.42 16.46,-11.42l134.49 0c10.95,0 16.48,3.79 16.48,11.42l0 2.86c0,4.77 -5.13,12.28 -15.41,22.52 -10.26,10.29 -15.33,20.89 -15.33,31.84l0 245.31c0,50.1 11.19,88.35 33.59,114.83 22.41,26.47 53.62,39.7 93.71,39.7 31.44,0 58.98,-12.52 82.59,-37.55 23.59,-25.06 35.4,-64.02 35.4,-116.98l0 -245.31c0,-10.95 -4.73,-21.55 -14.28,-31.84 -9.53,-10.24 -14.31,-17.76 -14.31,-22.52l0 -2.86c0,-7.63 5.48,-11.42 16.46,-11.42l81.54 0c10.95,0 16.42,3.79 16.42,11.42l0 2.86c0,4.77 -5.08,12.28 -15.37,22.52 -10.24,10.29 -15.37,20.89 -15.37,31.84l0 246.77c0,62.93 -17.91,111.92 -53.67,146.96 -35.74,35.09 -83.45,52.6 -143.05,52.6z"/>
   <path class="fil7" d="M7065.89 3476.02c10.94,0 16.42,4.07 16.42,12.16l0 2.15c0,4.77 -5.12,12.28 -15.36,22.53 -10.24,10.24 -15.37,20.84 -15.37,31.8l0 410.59c0,9.04 -2.55,16.12 -7.55,21.09 -5.01,5 -11.78,7.5 -20.34,7.5l-33.63 0c-10.48,0 -21,-7.39 -31.48,-22.17l-272.5 -365.5 0 317.59c0,11.46 5.35,22.41 16.07,32.89 10.76,10.52 16.11,18.15 16.11,22.91l0 2.12c0,8.14 -5.48,12.16 -16.46,12.16l-82.99 0c-10.95,0 -16.43,-4.02 -16.43,-12.16l0 -2.12c0,-4.77 4.78,-12.39 14.32,-22.91 9.54,-10.48 14.31,-21.43 14.31,-32.89l0 -368.36c0,-11.45 -4.78,-22.17 -14.31,-32.18 -9.54,-10.01 -14.32,-17.41 -14.32,-22.17l0 -2.86c0,-8.09 5.48,-12.16 16.43,-12.16l89.41 0c13.37,0 24.55,6.69 33.67,20.02l254.63 353.34 0 -304.73c0,-10.95 -5.12,-21.55 -15.41,-31.8 -10.24,-10.24 -15.36,-17.76 -15.36,-22.53l0 -2.15c0,-8.09 5.48,-12.16 16.43,-12.16l83.73 0z"/>
   <path class="fil7" d="M7160.26 3983.84c-10.95,0 -16.47,-4.07 -16.47,-12.16l0 -2.15c0,-4.74 4.65,-12.28 13.97,-22.53 9.3,-10.24 13.96,-21.09 13.96,-32.54l0 -369.07c0,-11.93 -4.66,-22.91 -13.96,-32.93 -9.31,-10.01 -13.97,-17.4 -13.97,-22.17l0 -2.86c0,-7.63 5.24,-11.42 15.73,-11.42l319.04 0c12.87,0 20.26,6.69 22.17,19.99l17.17 83.73c2.39,12.35 -2.38,18.57 -14.31,18.57l-4.3 0c-7.16,0 -14.9,-4.18 -23.24,-12.52 -8.37,-8.33 -15.72,-17.39 -22.17,-27.17 -6.45,-9.78 -14.54,-18.81 -24.32,-27.18 -9.78,-8.33 -19.91,-12.52 -30.43,-12.52l-91.51 0c-19.08,0 -28.62,10.24 -28.62,30.74l0 153.8 92.29 0c8.1,0 15.1,-2.73 21.09,-8.25 5.94,-5.48 10.36,-11.42 13.21,-17.87 2.89,-6.42 6.34,-12.39 10.37,-17.87 4.07,-5.48 7.98,-8.21 11.81,-8.21l5.71 0c8.09,0 12.19,5 12.19,14.98l0 115.17c0,10.01 -4.1,15.02 -12.19,15.02l-5.71 0c-3.83,0 -7.75,-2.61 -11.81,-7.86 -4.02,-5.24 -7.47,-10.83 -10.37,-16.82 -2.85,-5.94 -7.27,-11.54 -13.21,-16.81 -5.99,-5.24 -12.98,-7.86 -21.09,-7.86l-92.29 0 -0.71 149.52c0,11.93 3.09,22.28 9.31,31.08 6.17,8.85 15.72,13.26 28.59,13.26l105.16 0c10.44,0 20.37,-4.3 29.69,-12.91 9.3,-8.57 16.65,-18.1 22.17,-28.59 5.48,-10.48 12.24,-20.02 20.33,-28.62 8.14,-8.57 16.28,-12.87 24.37,-12.87l5.71 0c4.78,0 8.33,1.92 10.72,5.71 2.39,3.83 3.13,8.14 2.15,12.87l-15.72 86.58c-2.86,13.81 -10.52,20.73 -22.88,20.73l-337.61 0z"/>
   <path class="fil8" d="M4324.36 4113.16c36.33,0 67.43,17.72 84.55,47.68l-29.64 20.92c-13.65,-21.51 -31.95,-32.26 -54.91,-32.26 -35.75,0 -61.91,26.7 -61.91,63.35 0,36.61 26.16,62.77 61.91,62.77 22.96,0 41.26,-10.75 54.91,-32.27l29.64 20.93c-16.58,29.92 -47.94,47.67 -84.86,47.67 -56.08,1.13 -103.17,-44.46 -102,-99.37 -0.9,-54.94 46.5,-100.58 102.31,-99.42z"/>
   <path class="fil8" d="M4579.52 4149.48c-35.43,0 -61.59,26.16 -61.59,63.08 0,36.91 26.17,63.04 61.59,63.04 35.15,0 61.59,-26.13 61.59,-63.04 0,-36.33 -26.44,-63.08 -61.59,-63.08zm-0.31 -36.34c55.22,-1.13 103.2,44.46 102.3,99.42 0.9,54.91 -47.08,100.55 -102.3,99.37 -55.19,1.18 -102.59,-44.46 -101.69,-99.37 -0.9,-54.95 46.5,-100.55 101.69,-99.42z"/>
   <polygon class="fil8" points="4925.69,4116.65 4925.69,4311.96 4912.58,4311.96 4801.59,4193.34 4801.59,4308.44 4762.33,4308.44 4762.33,4113.17 4775.12,4113.17 4886.46,4231.17 4886.46,4116.65 "/>
   <path class="fil8" d="M5030.94 4249.16c12.47,17.13 26.16,27.89 47.08,27.89 17.17,0 27.3,-8.14 27.3,-21.2 0,-11.35 -6.1,-15.41 -24.4,-23.82l-20.61 -9.3c-29.37,-13.07 -46.5,-29.65 -46.5,-55.23 0,-32.85 27.3,-54.35 63.6,-54.35 29.37,0 51.46,14.27 63.39,36.33l-26.75 20.65c-9.85,-14.82 -22.06,-22.11 -36.64,-22.11 -13.61,0 -23.82,6.7 -23.82,18.63 0,10.17 6.11,14.82 22.37,22.09l21.83 9.57c32.26,14.24 47.36,30.23 47.36,56.08 0,35.15 -28.74,57.52 -67.11,57.52 -32.58,0 -59.28,-16.54 -74.11,-42.39l27.03 -20.37z"/>
   <polygon class="fil8" points="5270.7,4152.1 5209.43,4152.1 5209.43,4116.67 5371.56,4116.67 5371.56,4152.1 5309.93,4152.1 5309.93,4308.45 5270.7,4308.45 "/>
   <path class="fil8" d="M5484.35 4206.15l32.81 0c18.34,0 29.06,-11.03 29.06,-27.6 0,-16.28 -11.31,-27.3 -29.06,-27.3l-32.81 0 0 54.91zm78.45 102.31l-49.71 -67.73 -28.74 0 0 67.73 -39.27 0 0 -191.83 72.08 0c40.12,0 69.14,24.99 69.14,61.91 0,24.4 -12.75,44.14 -33.68,54.63l54.37 75.28 -44.19 0z"/>
   <path class="fil8" d="M5765.39 4149.48c-35.43,0 -61.59,26.16 -61.59,63.08 0,36.91 26.16,63.04 61.59,63.04 35.17,0 61.6,-26.13 61.6,-63.04 0,-36.33 -26.44,-63.08 -61.6,-63.08zm-0.31 -36.34c55.22,-1.13 103.21,44.46 102.31,99.42 0.9,54.91 -47.09,100.55 -102.31,99.37 -55.19,1.18 -102.57,-44.46 -101.68,-99.37 -0.9,-54.95 46.49,-100.55 101.68,-99.42z"/>
   <polygon class="fil8" points="5987.75,4152.1 5926.47,4152.1 5926.47,4116.67 6088.61,4116.67 6088.61,4152.1 6026.97,4152.1 6026.97,4308.45 5987.75,4308.45 "/>
   <polygon class="fil8" points="6162.13,4116.65 6291.19,4116.65 6291.19,4152.09 6201.39,4152.09 6201.39,4191.03 6267.33,4191.03 6267.33,4224.48 6201.39,4224.48 6201.39,4273.01 6294.67,4273.01 6294.67,4308.44 6162.13,4308.44 "/>
   <path class="fil8" d="M6463.26 4113.16c36.34,0 67.43,17.72 84.56,47.68l-29.65 20.92c-13.65,-21.51 -31.95,-32.26 -54.91,-32.26 -35.74,0 -61.9,26.7 -61.9,63.35 0,36.61 26.16,62.77 61.9,62.77 22.96,0 41.26,-10.75 54.91,-32.27l29.65 20.93c-16.58,29.92 -47.96,47.67 -84.87,47.67 -56.08,1.13 -103.16,-44.46 -101.99,-99.37 -0.9,-54.94 46.5,-100.58 102.3,-99.42z"/>
   <polygon class="fil8" points="6628.91,4116.65 6668.17,4116.65 6668.17,4190.18 6753.03,4190.18 6753.03,4116.65 6792.26,4116.65 6792.26,4308.44 6753.03,4308.44 6753.03,4225.64 6668.17,4225.64 6668.17,4308.44 6628.91,4308.44 "/>
   <polygon class="fil8" points="7012.85,4116.65 7052.11,4116.65 7052.11,4273.01 7136.07,4273.01 7136.07,4308.44 7012.85,4308.44 "/>
   <polygon class="fil8" points="7212.81,4116.65 7252.07,4116.65 7252.07,4273.01 7336.04,4273.01 7336.04,4308.44 7212.81,4308.44 "/>
   <path class="fil8" d="M7484.84 4206.44c18.35,0 29.07,-11.34 29.07,-27.88 0,-16.28 -11.31,-27.34 -29.07,-27.34l-32.8 0 0 55.22 32.8 0zm-72.07 -89.79l72.07 0c40.13,0 69.19,24.98 69.19,61.91 0,36.6 -29.06,62.18 -69.19,62.18l-32.8 0 0 67.69 -39.27 0 0 -191.78z"/>
  </g>
 </g>
</svg>
