<?xml version="1.0" encoding="UTF-8"?>
<!DOCTYPE svg PUBLIC "-//W3C//DTD SVG 1.1//EN" "http://www.w3.org/Graphics/SVG/1.1/DTD/svg11.dtd">
<!-- Creator: CorelDRAW 2021 (64-Bit) -->
<svg xmlns="http://www.w3.org/2000/svg" xml:space="preserve" width="10in" height="8in" version="1.1" style="shape-rendering:geometricPrecision; text-rendering:geometricPrecision; image-rendering:optimizeQuality; fill-rule:evenodd; clip-rule:evenodd"
viewBox="0 0 10000 8000"
 xmlns:xlink="http://www.w3.org/1999/xlink"
 xmlns:xodm="http://www.corel.com/coreldraw/odm/2003">
 <defs>
  <style type="text/css">
   <![CDATA[
    .fil1 {fill:#EB4244}
    .fil0 {fill:#FEFEFE;fill-rule:nonzero}
    .fil2 {fill:#454343;fill-rule:nonzero}
   ]]>
  </style>
 </defs>
 <g id="Layer_x0020_1">
  <metadata id="CorelCorpID_0Corel-Layer"/>
  <path class="fil0" d="M-4734.7 4055.43l-1375.32 0c-148.31,0 -269.64,-121.33 -269.64,-269.64l0 0c0,-148.31 121.33,-269.65 269.64,-269.65l1375.32 0c148.31,0 269.64,121.35 269.64,269.65l0 0c0,148.31 -121.33,269.64 -269.64,269.64z"/>
  <g id="_2743352812448">
   <path class="fil1" d="M3449.44 3208.74l0 0c68.39,41.13 90.67,130.73 49.54,199.12l-313.48 521.01c-41.13,68.39 -130.74,90.67 -199.13,49.5 -68.37,-41.13 -90.67,-130.73 -49.54,-199.11l313.48 -520.97c41.14,-68.39 130.74,-90.67 199.13,-49.54zm-481.11 0l0 0c68.39,41.13 90.68,130.73 49.54,199.12l-313.43 521.01c-41.18,68.39 -130.78,90.67 -199.16,49.5 -68.39,-41.13 -90.64,-130.73 -49.51,-199.11l313.44 -520.97c41.13,-68.39 130.78,-90.67 199.11,-49.54zm895.41 396.38l194.77 323.75c41.17,68.39 130.73,90.67 199.11,49.5 68.39,-41.13 90.68,-130.73 49.54,-199.11l-313.43 -520.97c-28.12,-46.76 -78.9,-71.95 -130.02,-70.09 -51.13,-1.82 -101.82,23.36 -129.94,70.09l-313.44 520.97c-41.13,68.38 -18.88,157.98 49.51,199.11 68.39,41.18 157.99,18.89 199.16,-49.5l194.75 -323.75z"/>
   <path class="fil2" d="M4515.81 3188.13l54.1 0 68.31 204.56 68.62 -204.56 53.98 0 49.15 293.25 -53.87 0 -31.29 -185.2 -62.12 185.2 -49.26 0 -61.81 -185.2 -31.92 185.2 -54.46 0 50.57 -293.25zm429.06 0l56.24 0 112.85 293.25 -58.07 0 -22.85 -60.46 -120.23 0 -23.4 60.46 -58.07 0 113.53 -293.25zm28.2 77.94l-39.78 100.94 79.32 0 -39.54 -100.94zm183.85 -77.94l56.77 0 0 110.66 98.04 0 0 -110.66 56.37 0 0 293.25 -56.37 0 0 -128.64 -98.04 0 0 128.64 -56.77 0 0 -293.25zm367.86 0l56.24 0 112.89 293.25 -58.06 0 -22.89 -60.46 -120.23 0 -23.4 60.46 -58.07 0 113.53 -293.25zm28.2 77.94l-39.75 100.94 79.29 0 -39.54 -100.94zm183.85 -77.94l55.58 0 0 240.18 82.1 0 0 53.07 -137.68 0 0 -293.25zm269.81 0l56.21 0 112.89 293.25 -58.06 0 -22.89 -60.46 -120.23 0 -23.4 60.46 -58.07 0 113.56 -293.25zm28.17 77.94l-39.75 100.94 79.34 0 -39.59 -100.94zm164.77 -77.94l63.35 0 61.68 94.12 61.76 -94.12 63.43 0 -93.54 142.56 98.73 150.69 -63.39 0 -67.07 -102.37 -67.11 102.37 -63.43 0 98.93 -150.69 -93.33 -142.56zm325.46 0l54.11 0 68.3 204.56 68.58 -204.56 53.98 0 49.15 293.25 -53.82 0 -31.29 -185.2 -62.12 185.2 -49.26 0 -61.81 -185.2 -31.92 185.2 -54.46 0 50.57 -293.25zm335.33 0l55.57 0 0 293.25 -55.57 0 0 -293.25z"/>
   <path class="fil2" d="M4929.04 3712.36l-39.43 83.3 78.69 0 -39.26 -83.3zm2.89 -48.9l107.35 230.14 -24.84 0 -36.22 -75.72 -99.13 0 -35.85 75.72 -25.66 0 108.76 -230.14 5.59 0z"/>
   <path class="fil2" d="M5051.17 3850.75l19.56 -11.74c13.77,25.34 29.67,38.04 47.72,38.04 7.74,0 14.96,-1.82 21.75,-5.43 6.78,-3.57 11.93,-8.41 15.5,-14.44 3.56,-6.07 5.32,-12.5 5.32,-19.28 0,-7.69 -2.62,-15.27 -7.86,-22.69 -7.14,-10.19 -20.31,-22.49 -39.39,-36.89 -19.19,-14.52 -31.13,-24.98 -35.81,-31.45 -8.14,-10.87 -12.22,-22.57 -12.22,-35.23 0,-10 2.42,-19.11 7.17,-27.37 4.8,-8.25 11.59,-14.72 20.32,-19.48 8.65,-4.76 18.16,-7.11 28.35,-7.11 10.87,0 20.98,2.67 30.43,8.06 9.43,5.35 19.43,15.22 29.99,29.63l-18.8 14.24c-8.69,-11.46 -16.04,-19.04 -22.14,-22.69 -6.11,-3.65 -12.78,-5.46 -19.95,-5.46 -9.29,0 -16.87,2.81 -22.77,8.44 -5.87,5.63 -8.8,12.57 -8.8,20.82 0,5 0.99,9.84 3.09,14.52 2.1,4.72 5.87,9.8 11.43,15.35 3.01,2.93 12.93,10.59 29.75,23.02 19.91,14.71 33.59,27.81 40.97,39.26 7.42,11.47 11.11,23 11.11,34.59 0,16.66 -6.35,31.18 -19,43.48 -12.66,12.29 -28.09,18.48 -46.26,18.48 -14,0 -26.65,-3.77 -37.99,-11.23 -11.39,-7.46 -21.86,-19.95 -31.46,-37.44z"/>
   <path class="fil2" d="M5210.76 3850.75l19.56 -11.74c13.76,25.34 29.67,38.04 47.72,38.04 7.74,0 14.96,-1.82 21.74,-5.43 6.78,-3.57 11.94,-8.41 15.52,-14.44 3.56,-6.07 5.31,-12.5 5.31,-19.28 0,-7.69 -2.62,-15.27 -7.85,-22.69 -7.14,-10.19 -20.3,-22.49 -39.39,-36.89 -19.2,-14.52 -31.15,-24.98 -35.82,-31.45 -8.13,-10.87 -12.21,-22.57 -12.21,-35.23 0,-10 2.42,-19.11 7.17,-27.37 4.8,-8.25 11.58,-14.72 20.31,-19.48 8.65,-4.76 18.17,-7.11 28.37,-7.11 10.86,0 20.98,2.67 30.43,8.06 9.43,5.35 19.43,15.22 29.99,29.63l-18.81 14.24c-8.68,-11.46 -16.02,-19.04 -22.13,-22.69 -6.11,-3.65 -12.78,-5.46 -19.96,-5.46 -9.28,0 -16.85,2.81 -22.77,8.44 -5.87,5.63 -8.8,12.57 -8.8,20.82 0,5 0.99,9.84 3.09,14.52 2.1,4.72 5.88,9.8 11.43,15.35 3.02,2.93 12.93,10.59 29.75,23.02 19.91,14.71 33.59,27.81 40.97,39.26 7.42,11.47 11.11,23 11.11,34.59 0,16.66 -6.34,31.18 -19,43.48 -12.65,12.29 -28.08,18.48 -46.25,18.48 -14,0 -26.66,-3.77 -38,-11.23 -11.38,-7.46 -21.85,-19.95 -31.45,-37.44z"/>
   <path class="fil2" d="M5504.69 3680.06c-17.01,0 -33.16,4.44 -48.43,13.29 -15.19,8.89 -27.13,20.83 -35.7,35.86 -8.57,15.03 -12.85,31.81 -12.85,50.26 0,27.37 9.48,50.45 28.43,69.3 18.97,18.83 41.81,28.28 68.54,28.28 17.89,0 34.39,-4.36 49.63,-13.01 15.19,-8.69 27.05,-20.51 35.54,-35.54 8.52,-15.04 12.81,-31.73 12.81,-50.1 0,-18.24 -4.28,-34.79 -12.81,-49.57 -8.49,-14.76 -20.47,-26.58 -35.94,-35.46 -15.43,-8.85 -31.89,-13.29 -49.22,-13.29zm-0.99 -22.37c34.87,0 64.02,11.63 87.51,34.87 23.48,23.28 35.22,51.92 35.22,85.91 0,33.67 -11.74,62.28 -35.14,85.72 -23.41,23.48 -52,35.23 -85.72,35.23 -34.11,0 -62.91,-11.7 -86.39,-35.07 -23.49,-23.36 -35.27,-51.61 -35.27,-84.8 0,-22.09 5.39,-42.6 16.07,-61.48 10.71,-18.89 25.26,-33.64 43.75,-44.35 18.48,-10.67 38.48,-16.03 59.98,-16.03z"/>
   <path class="fil2" d="M5886.94 3706.19l-18.14 13.92c-10.03,-13.06 -22.05,-22.93 -36.05,-29.63 -14.04,-6.74 -29.44,-10.12 -46.26,-10.12 -18.36,0 -35.34,4.41 -50.97,13.21 -15.67,8.85 -27.81,20.67 -36.37,35.54 -8.65,14.88 -12.96,31.57 -12.96,50.14 0,28.04 9.67,51.48 28.91,70.25 19.2,18.75 43.51,28.15 72.82,28.15 32.22,0 59.19,-12.62 80.88,-37.88l18.14 13.76c-11.47,14.61 -25.75,25.91 -42.92,33.88 -17.18,8.02 -36.34,11.98 -57.52,11.98 -40.26,0 -72.03,-13.41 -95.27,-40.23 -19.52,-22.6 -29.28,-49.94 -29.28,-81.94 0,-33.72 11.81,-62.03 35.46,-85.05 23.6,-23 53.2,-34.5 88.77,-34.5 21.5,0 40.89,4.25 58.23,12.77 17.29,8.49 31.49,20.39 42.52,35.74z"/>
   <polygon class="fil2" points="5929.81,3663.46 5952.83,3663.46 5952.83,3893.59 5929.81,3893.59 "/>
   <path class="fil2" d="M6096.65 3712.36l-39.42 83.3 78.69 0 -39.28 -83.3zm2.9 -48.9l107.33 230.14 -24.83 0 -36.22 -75.72 -99.13 0 -35.85 75.72 -25.67 0 108.76 -230.14 5.6 0z"/>
   <polygon class="fil2" points="6219.71,3686 6219.71,3663.47 6345.86,3663.47 6345.86,3686 6294.53,3686 6294.53,3893.61 6271.04,3893.61 6271.04,3686 "/>
   <polygon class="fil2" points="6379.12,3663.46 6511.01,3663.46 6511.01,3685.99 6402.12,3685.99 6402.12,3758.14 6510.09,3758.14 6510.09,3780.67 6402.12,3780.67 6402.12,3871.06 6510.09,3871.06 6510.09,3893.59 6379.12,3893.59 "/>
   <path class="fil2" d="M6526.97 3850.75l19.56 -11.74c13.76,25.34 29.67,38.04 47.72,38.04 7.74,0 14.95,-1.82 21.74,-5.43 6.78,-3.57 11.94,-8.41 15.5,-14.44 3.57,-6.07 5.32,-12.5 5.32,-19.28 0,-7.69 -2.62,-15.27 -7.85,-22.69 -7.14,-10.19 -20.31,-22.49 -39.39,-36.89 -19.2,-14.52 -31.15,-24.98 -35.82,-31.45 -8.13,-10.87 -12.22,-22.57 -12.22,-35.23 0,-10 2.43,-19.11 7.19,-27.37 4.8,-8.25 11.58,-14.72 20.3,-19.48 8.65,-4.76 18.17,-7.11 28.37,-7.11 10.86,0 20.98,2.67 30.41,8.06 9.44,5.35 19.44,15.22 29.99,29.63l-18.8 14.24c-8.68,-11.46 -16.02,-19.04 -22.13,-22.69 -6.11,-3.65 -12.77,-5.46 -19.96,-5.46 -9.28,0 -16.85,2.81 -22.77,8.44 -5.87,5.63 -8.8,12.57 -8.8,20.82 0,5 0.99,9.84 3.09,14.52 2.1,4.72 5.87,9.8 11.43,15.35 3.01,2.93 12.93,10.59 29.75,23.02 19.91,14.71 33.6,27.81 40.97,39.26 7.42,11.47 11.11,23 11.11,34.59 0,16.66 -6.34,31.18 -19,43.48 -12.65,12.29 -28.08,18.48 -46.25,18.48 -14,0 -26.66,-3.77 -38,-11.23 -11.38,-7.46 -21.86,-19.95 -31.45,-37.44z"/>
  </g>
 </g>
</svg>
