<?xml version="1.0" encoding="UTF-8"?>
<!DOCTYPE svg PUBLIC "-//W3C//DTD SVG 1.1//EN" "http://www.w3.org/Graphics/SVG/1.1/DTD/svg11.dtd">
<!-- Creator: CorelDRAW 2021 (64-Bit) -->
<svg xmlns="http://www.w3.org/2000/svg" xml:space="preserve" width="10in" height="8in" version="1.1" style="shape-rendering:geometricPrecision; text-rendering:geometricPrecision; image-rendering:optimizeQuality; fill-rule:evenodd; clip-rule:evenodd"
viewBox="0 0 10000 8000"
 xmlns:xlink="http://www.w3.org/1999/xlink"
 xmlns:xodm="http://www.corel.com/coreldraw/odm/2003">
 <defs>
  <style type="text/css">
   <![CDATA[
    .fil0 {fill:#EE4145;fill-rule:nonzero}
    .fil1 {fill:#E5BE79;fill-rule:nonzero}
   ]]>
  </style>
 </defs>
 <g id="Layer_x0020_1">
  <metadata id="CorelCorpID_0Corel-Layer"/>
  <g id="_2743355558208">
   <path class="fil0" d="M7141.31 2515.24l-76.16 53.88c-2.94,-9.04 -5.48,-16.09 -7.58,-21.35 -2.09,-5.13 -6.91,-15.78 -14.48,-31.91 -7.54,-16.08 -17.3,-31.02 -29.24,-44.7 -11.99,-13.68 -24.46,-23.48 -37.47,-29.46 -13.02,-5.97 -23.31,-9.94 -30.85,-11.85 -7.53,-1.92 -15.64,-3.4 -24.24,-4.46 -8.61,-1.07 -14.8,-1.61 -18.59,-1.61 -5.83,0 -12.48,0.62 -19.83,1.91 -7.3,1.3 -13.1,4.28 -17.28,8.97 -4.19,4.67 -6.29,10.02 -6.29,15.99 0,1.69 1.02,5.8 3.12,12.17 2.09,6.42 8.83,13.56 20.15,21.49 11.35,7.88 21.61,12.47 30.87,13.72 9.24,1.29 15.11,1.96 17.61,1.96l8.2 0c17.59,0 32.7,-3.21 45.33,-9.63l7.53 8.96 -1.25 1.3 -29.59 28.16c-15.52,14.93 -28.84,25.41 -39.98,31.38 -11.09,5.98 -22.96,8.96 -35.56,8.96l-8.82 0 -5.66 0c-26.43,-2.98 -46.81,-10.43 -61.07,-22.51 -14.25,-11.94 -21.39,-26.02 -21.39,-42.38 0,-9.35 4.5,-22.59 13.5,-39.71 9.04,-17.15 28.65,-35.3 58.87,-54.64 16.36,-9.36 34.41,-16.84 54.16,-22.37l8.2 -1.29 12.56 -3.21 22.02 -5.13 -7.53 -12.92c-11.32,-17.91 -22.69,-31.37 -34.01,-40.43 -11.32,-8.96 -22.01,-13.46 -32.09,-13.46 -7.97,0 -15.32,2.14 -22.06,6.42l-5.04 -7.04 42.84 -36.51c12.17,-10.25 22.55,-18.04 31.15,-23.4 8.59,-5.34 16.04,-7.97 22.36,-7.97 12.97,0 28.93,12.57 47.83,37.87 18.9,25.19 32.62,44.27 41.22,57.1 8.6,12.78 17.65,27 27.1,42.69 9.45,15.55 18.53,31.77 27.36,48.66 8.82,16.94 20.77,40.56 35.88,70.96l8.2 15.37z"/>
   <path class="fil0" d="M6762.33 2514.06l-18.9 10.25c-22.64,14.53 -42.38,29.23 -59.19,44.17l-1.25 -8.96 -11.94 -87.71c-3.79,-26.91 -6.73,-45.59 -8.83,-56.07 -2.09,-10.42 -6.1,-22.18 -11.94,-35.21 -5.89,-13.01 -14.26,-19.52 -25.18,-19.52 -8.43,0 -18.28,4.51 -29.6,13.46 -11.36,8.96 -26.11,25.04 -44.38,48.35 -18.28,23.27 -32.76,44.8 -43.46,64.67 -10.7,19.83 -17.91,33.61 -21.7,41.27 -3.79,7.71 -7.13,16.22 -10.07,25.62l-2.54 6.42 -3.12 7.67 -17.03 0c0,-18.9 -0.93,-44.39 -2.8,-76.61 -1.92,-32.14 -2.85,-48.67 -2.85,-49.52l-6.91 -66.93 -1.25 -11.64 -1.91 -13.54c-2.5,-18.06 -11.32,-27.01 -26.43,-27.01 -5.44,0 -10.52,1.52 -15.11,4.5l-5.66 3.83 -6.96 -12.17 97.6 -73c2.94,-2.13 6.07,-3.21 9.45,-3.21 3.76,0 7.67,1.38 11.64,4.18 3.96,2.77 7.97,7.23 11.94,13.42 4.02,6.2 7.05,14.62 9.15,25.32 2.09,10.65 3.16,21.57 3.16,32.67l0.62 3.83 2.55 43.54 0.62 10.25 2.49 26.25c8.43,-11.54 14.58,-19.96 18.6,-25.32 3.96,-5.29 11.76,-14.92 23.31,-28.78 11.5,-13.87 23.88,-28 37.11,-42.26 13.24,-14.3 27.06,-28.39 41.54,-42.3 14.49,-13.86 27.19,-20.81 38.1,-20.81 12.57,0 21.7,7.35 27.36,22.11 5.66,14.7 10.52,31.15 14.49,49.28 4.01,18.14 8.29,42.17 12.93,72.07l10.07 71.71 3.75 30.08 1.29 12.17 1.25 13.46z"/>
   <path class="fil0" d="M6400.97 2515.24l-76.17 53.88c-2.94,-9.04 -5.48,-16.09 -7.58,-21.35 -2.09,-5.13 -6.9,-15.78 -14.48,-31.91 -7.53,-16.08 -17.3,-31.02 -29.28,-44.7 -11.94,-13.68 -24.42,-23.48 -37.43,-29.46 -13.01,-5.97 -23.31,-9.94 -30.84,-11.85 -7.58,-1.92 -15.65,-3.4 -24.24,-4.46 -8.6,-1.07 -14.81,-1.61 -18.59,-1.61 -5.84,0 -12.47,0.62 -19.82,1.91 -7.31,1.3 -13.11,4.28 -17.3,8.97 -4.19,4.67 -6.29,10.02 -6.29,15.99 0,1.69 1.04,5.8 3.12,12.17 2.1,6.42 8.83,13.56 20.15,21.49 11.36,7.88 21.61,12.47 30.89,13.72 9.22,1.29 15.11,1.96 17.59,1.96l8.2 0c17.61,0 32.72,-3.21 45.33,-9.63l7.53 8.96 -1.25 1.3 -29.59 28.16c-15.52,14.93 -28.84,25.41 -39.97,31.38 -11.14,5.98 -23,8.96 -35.57,8.96l-8.82 0 -5.66 0c-26.43,-2.98 -46.79,-10.43 -61.06,-22.51 -14.26,-11.94 -21.4,-26.02 -21.4,-42.38 0,-9.35 4.51,-22.59 13.5,-39.71 9.05,-17.15 28.67,-35.3 58.88,-54.64 16.35,-9.36 34.4,-16.84 54.15,-22.37l8.2 -1.29 12.57 -3.21 22 -5.13 -7.53 -12.92c-11.32,-17.91 -22.68,-31.37 -34,-40.43 -11.32,-8.96 -22.02,-13.46 -32.09,-13.46 -7.98,0 -15.34,2.14 -22.07,6.42l-5.03 -7.04 42.83 -36.51c12.17,-10.25 22.55,-18.04 31.15,-23.4 8.6,-5.34 16.04,-7.97 22.37,-7.97 12.96,0 28.92,12.57 47.82,37.87 18.9,25.19 32.62,44.27 41.22,57.1 8.6,12.78 17.65,27 27.1,42.69 9.45,15.55 18.54,31.77 27.36,48.66 8.83,16.94 20.77,40.56 35.88,70.96l8.2 15.37z"/>
   <path class="fil0" d="M6057.25 2315.56l-13.86 12.17 -14.49 12.17 -45.33 35.21c0,-6.82 -4.18,-16.85 -12.47,-30.09l-14.35 -14.07c-2.86,-1.74 -6.2,-2.59 -10,-2.59 -10.38,0 -17.74,6.19 -22.15,18.58 -4.28,12.39 -7.04,22.64 -8.06,30.75 -1.07,8.11 -1.57,20.06 -1.57,35.84l0 41.31 0 38.74 0 21.79 -16.93 10.86 -16.23 12.17 -23.7 16.01 -24.38 16.66 0 -36.5 0 -37.13 0 -11.53c0,-27.77 -1.46,-56.03 -4.37,-84.86 -2.94,-28.79 -6.42,-49.07 -10.42,-60.84 -3.97,-11.71 -9.94,-17.6 -17.91,-17.6 -2.94,0 -7.76,1.52 -14.49,4.5l-6.28 4.46 -6.96 -14.7 102.42 -69.8c3.48,-2.13 6.82,-3.21 10.16,-3.21 4.64,0 8.83,1.48 12.62,4.46 3.88,2.99 6.42,6.1 7.67,9.31 1.24,3.21 2.31,9.9 3.12,20.15l1.91 19.21 0 2.58 0 26.25 67.35 -61.46 5.03 -4.5c13.87,-10.7 24.15,-16.01 30.85,-16.01 9.66,0 20.81,13.87 33.37,41.63 4.64,8.52 7.76,18.55 9.45,30.09z"/>
   <path class="fil0" d="M5750.04 2508.3l-23.63 14.74c-17.29,11.5 -29.46,19.61 -36.28,24.29 -6.81,4.72 -16.7,12.39 -29.5,23.08l-3.79 -173.54 -12.57 16.13 -1.24 1.25 -6.96 13.54c-7.13,10.79 -14.57,21.26 -22.32,31.29 -7.76,10.16 -19.83,24.65 -36.23,43.55l-18.86 22.64 -1.91 2.54 -1.87 1.29 -22.69 19.96 -18.85 16.09c-4.64,3.52 -10.08,5.26 -16.4,5.26 -12.18,0 -20.01,-3.74 -23.59,-11.32 -3.56,-7.48 -5.96,-13.14 -7.26,-17.07 -1.24,-3.83 -3.12,-12.39 -5.66,-25.71l-18.27 -148.06c-2.5,-21.88 -5.53,-35.83 -9.09,-42.16 -3.56,-6.19 -10.6,-9.27 -21.12,-9.27 -5.43,0 -9.85,0.22 -13.19,0.63l-4.41 0.67 -3.17 -12.83 94.43 -56.34c4.64,-2.14 9.24,-2.98 13.87,-2.58 5.03,0 9.31,1.61 12.92,4.81 3.56,3.21 5.35,6.94 5.35,11.23l6.91 72.33 5.03 33.3 7.58 54.46c0.41,2.13 0.94,4.76 1.57,7.97 0.62,3.21 2,6.5 4.09,9.94 2.5,7.26 8.37,10.88 17.61,10.88 5.03,0 10.3,-1.48 15.73,-4.46 10.52,-6.87 19.66,-14.08 27.41,-21.79 7.74,-7.67 18.85,-22.11 33.33,-43.23 14.49,-21.12 21.75,-47.46 21.75,-79.07 2.1,-2.14 4.9,-4.59 8.46,-7.35 3.61,-2.8 12.22,-9.31 25.85,-19.56 13.65,-10.26 23.09,-17.07 28.3,-20.46 5.27,-3.43 15.25,-9.17 29.92,-17.28 -1.25,13.23 -2.19,27.4 -2.82,42.56 -0.62,15.15 -0.97,32.57 -0.97,52.19l0 76.83 2.54 67.25 0 31.38z"/>
   <path class="fil0" d="M5371.68 2428.26c-4.64,9.4 -11.62,19.83 -21.07,31.37 -9.45,11.55 -19.83,22.51 -31.15,32.98 -11.37,10.47 -19.43,17.51 -24.24,21.12 -4.86,3.65 -12.3,8.78 -22.37,15.37 -10.08,6.59 -22.24,13.01 -36.51,19.2 -14.25,6.2 -29.5,11.19 -45.63,15.07 -16.19,3.83 -33.07,5.75 -50.67,5.75 -18.49,0 -35.26,-2.54 -50.35,-7.67 -15.11,-5.13 -27.1,-11.63 -35.88,-19.57 -8.83,-7.88 -14.93,-14.16 -18.28,-18.85 -3.33,-4.72 -5.03,-9.4 -5.03,-14.13 0,-7.67 5.26,-16 15.73,-24.96 10.47,-8.96 28.35,-21.34 53.52,-37.12l20.14 -12.17c4.6,17.07 15.96,33.29 34.01,48.67 18,15.37 35.44,23.04 52.24,23.04 2.54,0.41 6.1,0.62 10.69,0.62 21.4,0 38.74,-5.75 51.93,-17.3 13.24,-11.5 19.83,-25.8 19.83,-42.87 0,-2.99 -1.34,-9.63 -4.06,-19.88 -2.76,-10.25 -8.6,-19.43 -17.65,-27.54 -9.01,-8.11 -24.24,-16.22 -45.63,-24.33l-13.87 -4.46 -112.66 -31.37c-5.03,-1.74 -9.98,-3.96 -14.79,-6.73 -4.87,-2.77 -13.24,-9.09 -25.18,-18.9 -11.99,-9.8 -17.96,-25.8 -17.96,-48.04 0,-19.2 7.04,-38.81 21.09,-58.87 14.09,-20.1 30.43,-35.96 49.11,-47.73 18.67,-11.72 30.66,-18.98 35.88,-21.75 5.25,-2.8 19.83,-8.87 43.76,-18.27 23.94,-9.4 50.14,-14.09 78.72,-14.09 26.82,0 48.26,5.22 64.21,15.69 15.91,10.47 23.89,20.59 23.89,30.43 0,5.53 -2.09,9.8 -6.28,12.8l-21.4 13.45 -50.99 28.17 -7.57 -10.88c-21,-25.62 -44.71,-38.42 -71.14,-38.42 -2.93,0 -12.17,1.38 -27.72,4.15 -15.51,2.77 -25.9,10.79 -31.15,24.03 -5.26,13.23 -7.85,23.26 -7.85,30.08 0,12.39 5.44,23.71 16.36,33.91 10.91,10.26 28.35,20.11 52.24,29.46l5.03 1.3 96.98 26.91c54.55,14.93 81.83,41.8 81.83,80.67 0,13.68 -3.35,27.54 -10.08,41.63z"/>
   <path class="fil0" d="M5480.01 2933.59c0,24.28 -4.11,46.3 -12.34,66.08 -8.2,19.71 -17.24,36.69 -27.1,50.86 -5.66,8.11 -11.14,15.32 -16.57,21.65 -5.39,6.33 -9.99,11.76 -13.73,16.31 -4.67,5.08 -11.5,11.9 -20.45,20.5 -8.92,8.6 -18.99,17.47 -30.31,26.61 -14.09,11.63 -29.81,22.51 -47.2,32.63 -17.39,10.11 -35.21,16.7 -53.53,19.73 -3.79,0.49 -7.53,1.02 -11.27,1.52 -3.75,0.49 -7.54,0.76 -11.28,0.76 -7.97,0 -17.51,-0.97 -28.52,-3.03 -11.06,-2 -22.2,-4.06 -33.46,-6.05 -5.66,-1.52 -11.19,-3.04 -16.57,-4.55 -5.39,-1.52 -10.7,-3.08 -15.87,-4.6 -5.62,-2 -10.93,-3.78 -15.83,-5.29 -4.94,-1.52 -9.54,-3.03 -13.77,-4.55 0,-1.52 0.58,-10.39 1.78,-26.57 1.16,-16.22 2.68,-36.99 4.6,-62.31 0.93,-21.74 1.96,-46.04 3.16,-72.91 1.16,-26.83 2.01,-53.88 2.45,-81.24l0 -12.53 0 -12.52 -0.7 -106.3c-4.69,0.49 -9.72,0.9 -15.16,1.13 -5.39,0.26 -10.69,0.62 -15.81,1.15 -4.72,0.49 -9.4,1.02 -14.09,1.52 -4.72,0.49 -8.96,1.02 -12.7,1.52 -9.41,1.52 -17.38,2.76 -23.98,3.79 -6.56,1.02 -10.35,1.52 -11.28,1.52l85.26 -83.52c0.94,0.49 3.44,0.49 7.41,0 4,-0.49 9.52,-1.29 16.57,-2.28 6.59,-0.53 14.3,-1.02 23.26,-1.52 8.92,-0.53 18.55,-0.76 28.88,-0.76 99.12,0 171.9,22.23 218.43,66.8 46.48,44.57 69.75,96.93 69.75,157.19l0 -0.76zm-81.03 62.26c0,-30.35 -4.36,-56.83 -13.01,-79.32 -8.69,-22.55 -18.23,-40.65 -28.56,-54.34 -2.31,-3.03 -4.46,-5.66 -6.33,-7.97 -1.87,-2.28 -3.79,-4.41 -5.66,-6.42 -15.96,-17.74 -35.56,-31.42 -58.83,-41.01 -23.22,-9.63 -48.98,-14.44 -77.14,-14.44l0 21.67 0 35.3c-0.44,13.68 -0.72,29.23 -0.72,46.7l0 56.56 0 27.31 0 34.94 0 7.97c0,2.82 0.28,5.44 0.72,7.98l0 38.37 0 19.34c1.43,0 5.03,1.02 10.91,3.03 5.89,2.05 13.28,4.06 22.2,6.06 8.46,2.54 18.09,4.81 28.88,6.86 10.83,2.01 21.84,3.03 33.11,3.03 15.51,0 28.93,-2.28 40.16,-6.82 11.32,-4.59 20.68,-10.39 28.21,-17.46 1.43,-1.52 2.94,-3.58 4.58,-6.12 1.66,-2.49 3.17,-5.3 4.59,-8.32 4.19,-7.58 8.07,-17.61 11.6,-30 3.51,-12.38 5.29,-26.46 5.29,-42.16l0 -0.76z"/>
   <path class="fil0" d="M5627.98 3034.58l-8.46 -14.44c12.22,-7.09 23.13,-15.69 32.76,-25.81 9.67,-10.11 15.41,-20.76 17.3,-31.86 0.44,-1.02 0.7,-2.05 0.7,-3.07l0 -3.03c0,-2.54 -0.35,-5.04 -1.07,-7.58 -0.71,-2.54 -1.78,-5.34 -3.16,-8.38 -3.3,-7.09 -8.6,-13.56 -15.87,-19.34 -7.26,-5.84 -15.87,-8.74 -25.71,-8.74 -13.64,0 -24.06,5.18 -31.33,15.56 -7.31,10.39 -11.42,21.65 -12.35,33.78 -0.48,1.52 -0.7,3.07 -0.7,4.59l0 4.55c0,20.22 4,39 11.99,56.19 7.97,17.2 17.12,31.65 27.45,43.28 1.87,2.01 4.01,4.18 6.37,6.46 2.32,2.27 4.9,4.69 7.72,7.22 8.02,6.54 17.65,12.66 28.92,18.23 11.28,5.52 23.48,8.33 36.64,8.33 11.28,0 21.35,-1.64 30.31,-4.94 8.92,-3.3 15.95,-6.96 21.12,-11.02l9.85 12.18c-3.3,3.02 -6.47,5.92 -9.5,8.73 -3.07,2.77 -6.02,5.71 -8.82,8.73 -6.1,5.57 -11.86,11.02 -17.24,16.32 -5.39,5.29 -10.93,10.51 -16.59,15.55 -10.78,10.12 -21.92,18.35 -33.46,24.69 -11.5,6.33 -24.79,9.5 -39.8,9.5l-3.88 0c-1.16,0 -2.45,-0.28 -3.88,-0.76 -12.22,-1.04 -23.94,-4.81 -35.21,-11.41 -11.28,-6.56 -21.17,-13.91 -29.64,-22.02 -1.38,-1.52 -2.68,-2.91 -3.84,-4.15 -1.2,-1.3 -2.49,-2.68 -3.87,-4.19 -2.36,-2.54 -5.3,-5.83 -8.83,-9.85 -3.53,-4.06 -6.91,-8.87 -10.21,-14.44 -6.59,-10.11 -12.57,-22.28 -17.95,-36.45 -5.39,-14.17 -8.12,-29.64 -8.12,-46.31 0,-21.8 3.52,-41.05 10.57,-57.71 7.04,-16.71 14.79,-30.89 23.26,-42.56 3.3,-4.55 6.47,-8.74 9.49,-12.52 3.08,-3.79 6.02,-7.22 8.83,-10.26 3.74,-4.06 8.2,-8.6 13.37,-13.68 5.18,-5.03 10.84,-10.12 16.94,-15.15 11.72,-10.17 24.77,-19.52 39.09,-28.12 14.35,-8.61 29,-13.65 44.02,-15.2l3.21 0 3.84 0c2.36,0 4.71,0.13 7.04,0.39 2.36,0.28 4.72,0.63 7.09,1.16 15.96,2.5 30.61,9.45 44.03,20.86 13.38,11.41 20.06,25.94 20.06,43.67 0,8.11 -1.66,14.8 -4.9,20.1 -3.3,5.35 -7.09,10.26 -11.28,14.84 -7.53,8.07 -19.74,18.85 -36.63,32.27 -16.93,13.41 -35.97,27.19 -57.09,41.36 -3.74,2.54 -7.53,5.08 -11.27,7.62 -3.75,2.54 -7.53,5.04 -11.28,7.58l0 -0.76z"/>
   <path class="fil0" d="M5887.79 2867.39c5.17,6.59 12.34,17.96 21.49,34.19 9.17,16.18 18.67,34.41 28.51,54.69 3.3,6.05 6.51,12.38 9.54,18.94 3.08,6.59 6.01,13.19 8.83,19.78 7.48,16.68 14.44,33.02 20.77,48.98 6.33,15.92 11.14,30.22 14.44,42.88 0.48,-0.99 1.06,-1.87 1.78,-2.63 0.67,-0.76 1.29,-1.65 1.73,-2.68 1.43,-2.54 2.81,-4.94 4.24,-7.21 1.41,-2.28 2.8,-4.69 4.23,-7.23 12.2,-19.25 23.35,-37.7 33.46,-55.43 10.07,-17.7 15.15,-32.63 15.15,-44.8 0,-10.6 -6.45,-20.1 -19.38,-28.48 -12.93,-8.34 -30.39,-14.04 -52.5,-17.07l85.26 -69.13c16.93,5.08 31.6,10.12 44.03,15.2 12.48,5.08 21.04,10.65 25.72,16.72 2.36,2.01 4.15,4.28 5.31,6.82 1.15,2.54 1.78,5.83 1.78,9.89 0,8.11 -13.29,31.65 -39.84,70.59 -26.52,39 -55.75,82.54 -87.71,130.63 -4.23,6.59 -8.46,13.15 -12.7,19.74 -4.23,6.59 -8.48,13.15 -12.66,19.75 -6.1,9.63 -12.13,19.11 -17.96,28.47 -5.87,9.36 -11.63,18.58 -17.3,27.72l-20.4 0c-3.79,-13.68 -9.76,-31.37 -18.02,-53.16 -8.2,-21.76 -17.24,-44.31 -27.08,-67.57 -4.25,-9.13 -8.48,-18.22 -12.71,-27.36 -4.23,-9.09 -8.43,-17.95 -12.66,-26.56 -9.4,-19.26 -18.67,-36.72 -27.85,-52.42 -9.13,-15.69 -17.24,-27.31 -24.28,-34.89 -2.37,-2.54 -4.81,-4.95 -7.41,-7.23 -2.57,-2.31 -5.75,-3.42 -9.54,-3.42 -0.94,0 -2.1,0.13 -3.52,0.35 -1.39,0.27 -2.59,0.67 -3.52,1.17 -1.39,0.49 -2.8,1.15 -4.23,1.91 -1.39,0.76 -2.59,1.39 -3.52,1.88 -0.44,0 -0.81,0.13 -1.02,0.39 -0.26,0.22 -0.63,0.63 -1.07,1.12l-4.23 -15.16c4.68,-3.07 9.54,-6.46 14.44,-10.25 4.95,-3.84 9.98,-7.76 15.15,-11.81 12.71,-10.12 24.79,-19.21 36.28,-27.33 11.5,-8.11 20.33,-12.17 26.43,-12.17 4.23,0 7.88,0.9 10.91,2.68 3.08,1.78 5.75,3.91 8.11,6.45 0.5,0.5 1.07,1.13 1.8,1.88 0.66,0.8 1.29,1.42 1.73,1.91l0 -0.76z"/>
   <path class="fil0" d="M6265.47 3038.32l-8.46 -14.44c12.2,-7.09 23.13,-15.69 32.8,-25.81 9.63,-10.12 15.37,-20.77 17.24,-31.86 0.46,-1.02 0.72,-2.06 0.72,-3.08l0 -3.03c0,-2.54 -0.35,-5.03 -1.07,-7.57 -0.7,-2.54 -1.78,-5.36 -3.16,-8.39 -3.3,-7.07 -8.6,-13.54 -15.87,-19.34 -7.26,-5.83 -15.87,-8.73 -25.72,-8.73 -13.63,0 -24.07,5.17 -31.37,15.55 -7.26,10.39 -11.37,21.67 -12.3,33.78 -0.49,1.52 -0.71,3.08 -0.71,4.6l0 4.54c0,20.24 4.01,39 11.99,56.2 7.97,17.21 17.11,31.65 27.45,43.27 1.87,2.01 4,4.19 6.37,6.46 2.33,2.28 4.9,4.68 7.71,7.22 8.02,6.56 17.65,12.66 28.93,18.23 11.27,5.53 23.48,8.34 36.64,8.34 11.27,0 21.35,-1.66 30.3,-4.95 8.91,-3.3 15.96,-6.95 21.13,-11l9.84 12.17c-3.24,3.03 -6.45,5.93 -9.49,8.74 -3.07,2.75 -6.01,5.7 -8.81,8.73 -6.11,5.57 -11.86,11 -17.26,16.31 -5.43,5.31 -10.91,10.52 -16.57,15.56 -10.79,10.12 -21.93,18.37 -33.46,24.7 -11.51,6.33 -24.78,9.49 -39.81,9.49l-3.88 0c-1.15,0 -2.45,-0.27 -3.88,-0.76 -12.2,-1.02 -23.93,-4.81 -35.2,-11.41 -11.28,-6.54 -21.17,-13.91 -29.6,-22.02 -1.43,-1.52 -2.72,-2.89 -3.88,-4.15 -1.2,-1.29 -2.49,-2.67 -3.88,-4.18 -2.36,-2.54 -5.31,-5.84 -8.82,-9.85 -3.52,-4.06 -6.91,-8.87 -10.2,-14.44 -6.59,-10.12 -12.57,-22.28 -17.96,-36.46 -5.4,-14.16 -8.11,-29.64 -8.11,-46.35 0,-21.74 3.52,-41 10.56,-57.71 7.05,-16.67 14.8,-30.84 23.27,-42.52 3.3,-4.54 6.45,-8.73 9.49,-12.52 3.08,-3.79 6.01,-7.21 8.83,-10.24 3.74,-4.06 8.2,-8.6 13.36,-13.68 5.17,-5.04 10.83,-10.12 16.94,-15.16 11.71,-10.16 24.78,-19.52 39.07,-28.12 14.35,-8.6 29.02,-13.63 44.04,-15.2l3.16 0 3.88 0c2.36,0 4.72,0.14 7.05,0.41 2.36,0.26 4.72,0.62 7.09,1.16 15.94,2.49 30.61,9.45 44.03,20.86 13.37,11.41 20.05,25.93 20.05,43.67 0,8.11 -1.64,14.8 -4.94,20.1 -3.26,5.34 -7,10.24 -11.23,14.84 -7.53,8.06 -19.74,18.85 -36.67,32.26 -16.89,13.42 -35.93,27.19 -57.05,41.36 -3.74,2.54 -7.53,5.08 -11.28,7.62 -3.74,2.54 -7.53,5.04 -11.27,7.58l0 -0.76z"/>
   <path class="fil0" d="M6516.24 2631.39c7.04,0.49 12.57,3.56 16.57,9.09 3.96,5.57 5.98,12.43 5.98,20.49l0 41.8c0,14.17 0.21,28.08 0.7,41.76 0.44,39.49 1.02,78.48 1.74,116.94 0.71,38.45 1.78,73.89 3.16,106.3 0.99,44.56 2.01,81.24 3.21,110.12 1.17,28.83 1.74,44.52 1.74,47.06l-93.02 63.06c0,-5.08 0.14,-13.06 0.37,-23.94 0.21,-10.86 0.35,-22.15 0.35,-33.78l0 -5.7 0 -4.95c0.49,-13.68 0.8,-25.85 1.06,-36.44 0.23,-10.61 0.37,-16.45 0.37,-17.47l0 -149.61c0,-73.4 -1.57,-124.65 -4.6,-153.76 -3.07,-29.11 -11.85,-43.67 -26.43,-43.67 -3.3,0 -6.54,0.67 -9.84,1.92 -3.3,1.24 -6.38,2.67 -9.19,4.18 -0.44,0.5 -1.07,1.02 -1.78,1.52 -0.67,0.49 -1.52,1.02 -2.45,1.52l-7.05 -14.44c6.11,-3.52 13.29,-8.87 21.49,-15.69 8.24,-6.95 17.02,-13.9 26.43,-21.13 0.93,-0.49 2.01,-1.29 3.16,-2.27 1.21,-1.02 2.45,-2.05 3.88,-3.07 13.15,-10.26 25.85,-19.48 38.06,-27.59 12.22,-8.2 20.89,-12.25 26.07,-12.25z"/>
   <path class="fil0" d="M6876.75 2993.5c0,21.26 -3.88,40.11 -11.62,56.56 -7.76,16.44 -16.32,30.75 -25.72,42.91 -3.74,5.08 -7.53,9.76 -11.28,14.09 -3.74,4.28 -7.26,8.2 -10.56,11.72 -2.8,3.07 -5.66,6.1 -8.46,9.13 -2.8,3.04 -5.83,6.07 -9.13,9.1 -14.08,13.19 -30.3,25.22 -48.62,36.09 -18.32,10.88 -37.13,16.31 -56.38,16.31 -27.22,0 -50.62,-11.76 -70.1,-35.3 -19.47,-23.57 -31.1,-49.51 -34.89,-77.86 -0.44,-3.03 -0.8,-6.07 -1.02,-9.08 -0.27,-3.04 -0.35,-6.07 -0.35,-9.15 0,-19.73 4.32,-37.2 13.01,-52.36 8.69,-15.2 20.54,-29.9 35.6,-44.08 4.69,-4.55 9.77,-8.96 15.16,-13.28 5.39,-4.28 10.91,-8.73 16.54,-13.28l10.56 8.38c-2.33,4 -4.55,8.06 -6.69,12.11 -2.09,4.07 -3.88,8.39 -5.27,12.94 -1.91,5.57 -3.3,11.13 -4.23,16.7 -0.93,5.57 -1.43,10.39 -1.43,14.4 0,19.25 3.66,36.46 10.93,51.66 7.26,15.2 15.37,27.58 24.28,37.2 0.49,0.49 0.85,0.9 1.07,1.12 0.27,0.27 0.62,0.66 1.07,1.15 0.94,1.02 1.78,1.92 2.45,2.68 0.7,0.76 1.55,1.64 2.49,2.63 6.11,5.57 13.5,10.79 22.2,15.6 8.69,4.81 18.41,7.18 29.23,7.18 16.45,0 28.3,-5.54 35.56,-16.68 7.26,-11.14 10.93,-24.07 10.93,-38.72 0,-4.06 -0.23,-8.25 -0.72,-12.57 -0.44,-4.28 -1.15,-8.46 -2.09,-12.52 -2.81,-15.69 -8.11,-30.89 -15.85,-45.56 -7.76,-14.65 -16.32,-27.31 -25.72,-37.96 -10.79,-11.64 -23.13,-20.86 -36.99,-27.73 -13.86,-6.82 -29.23,-10.24 -46.12,-10.24 -4.72,0 -9.32,0.41 -13.77,1.16 -4.46,0.76 -8.34,1.64 -11.6,2.63 -0.97,0.53 -1.91,0.88 -2.84,1.15 -0.93,0.23 -1.87,0.37 -2.81,0.37l-2.09 -13.65c0.44,0 0.8,-0.13 1.02,-0.4 0.27,-0.27 0.58,-0.62 1.06,-1.11 9.85,-10.16 21.49,-20.01 34.91,-29.64 13.37,-9.63 27.1,-17.19 41.17,-22.76 6.59,-2.55 13.06,-4.55 19.39,-6.06 6.37,-1.52 12.57,-2.28 18.67,-2.28 25.85,0 47.82,9.45 65.87,28.44 18.09,18.98 31.59,39.62 40.55,61.91 4.2,10.65 7.41,20.89 9.5,30.75 2.1,9.89 3.16,18.85 3.16,26.96l0 -0.76z"/>
   <path class="fil0" d="M7141.12 2847.74c17.84,0.49 33.25,10.12 46.14,28.84 12.92,18.76 22.68,39.26 29.27,61.55 2.81,10.6 5.04,20.85 6.69,30.75 1.64,9.84 2.45,18.85 2.45,26.96 0,16.19 -2.1,30.63 -6.33,43.27 -4.23,12.66 -8.92,23.27 -14.13,31.87 -1.87,3.56 -3.74,6.74 -5.61,9.49 -1.87,2.82 -3.74,5.22 -5.62,7.23 -4.72,5.08 -10.47,10.38 -17.28,15.95 -6.78,5.57 -14.44,11.41 -22.91,17.47 -12.66,8.59 -26.43,16.98 -41.17,25.04 -14.81,8.11 -29.95,14.93 -45.46,20.5l-6.33 -20.5c26.3,-11.14 45.56,-23.8 57.76,-37.96 12.21,-14.18 18.31,-33.66 18.31,-58.48 0,-6.54 -0.49,-13.54 -1.37,-20.86 -0.99,-7.35 -2.14,-14.57 -3.56,-21.65 -4.69,-20.24 -12.31,-38.87 -22.87,-55.8 -10.61,-16.98 -24.12,-25.46 -40.56,-25.46 -15.02,0 -26.07,6.82 -33.07,20.5 -7.09,13.68 -10.61,30.13 -10.61,49.38l0 135.13c0,5.57 0.14,16.98 0.37,34.19 0.22,17.2 0.58,35.96 1.06,56.2 0.46,19.73 0.81,38.37 1.07,55.79 0.23,17.47 0.31,28.75 0.31,33.83l-86.64 26.56c0,-7.57 0.13,-13.54 0.35,-17.83 0.23,-4.32 0.35,-7.74 0.35,-10.24 0,-2.54 0.09,-4.59 0.35,-6.1 0.22,-1.52 0.37,-2.77 0.37,-3.79l0 -0.35 0 -0.41 0 -152.65c0,-10.6 -0.14,-24.02 -0.37,-40.24 -0.27,-16.19 -0.62,-32.9 -1.06,-50.1 -0.93,-25.85 -2.59,-49.86 -4.95,-72.15 -2.36,-22.28 -5.89,-35.96 -10.56,-41 -1.87,-2.05 -3.97,-3.78 -6.33,-5.3 -2.36,-1.52 -5.17,-2.32 -8.46,-2.32 -1.39,0 -3.39,0.4 -5.98,1.16 -2.59,0.76 -5.3,1.64 -8.11,2.68 -2.36,0.97 -4.59,2.13 -6.68,3.39 -2.13,1.29 -3.88,2.67 -5.31,4.18l-7.04 -15.96c6.1,-4.06 13.14,-9.22 21.12,-15.55 7.97,-6.33 16.22,-12.78 24.69,-19.38 1.39,-0.98 2.8,-2.01 4.19,-3.03 1.43,-0.98 2.85,-2.01 4.23,-3.03 14.09,-10.61 27.36,-20.1 39.85,-28.49 12.43,-8.33 21.48,-12.52 27.1,-12.52 8.96,0 15.06,4.32 18.31,12.93 3.3,8.6 5.43,17.96 6.37,28.08 0,3.51 0.09,7.09 0.35,10.65 0.22,3.52 0.37,6.82 0.37,9.85 0,2.54 0.09,4.94 0.3,7.21 0.26,2.28 0.35,4.19 0.35,5.71 4.25,-3.57 8.69,-7.36 13.42,-11.42 4.69,-4.06 9.41,-7.83 14.09,-11.36 3.74,-3.56 7.53,-6.86 11.28,-9.89 3.74,-3.03 7.48,-6.06 11.27,-9.09 12.22,-9.13 24.07,-16.84 35.56,-23.17 11.5,-6.33 21.75,-9.5 30.66,-9.5l0 -0.76z"/>
   <path class="fil0" d="M7372.02 3044.17l-8.48 -14.44c12.21,-7.09 23.13,-15.69 32.81,-25.8 9.63,-10.12 15.37,-20.77 17.24,-31.91 0.44,-0.98 0.72,-2.01 0.72,-3.03l0 -3.03c0,-2.54 -0.37,-5.08 -1.07,-7.58 -0.71,-2.54 -1.78,-5.34 -3.17,-8.37 -3.3,-7.09 -8.59,-13.54 -15.85,-19.34 -7.27,-5.83 -15.87,-8.73 -25.72,-8.73 -13.63,0 -24.06,5.17 -31.33,15.55 -7.31,10.39 -11.41,21.65 -12.34,33.78 -0.5,1.52 -0.72,3.07 -0.72,4.59l0 4.55c0,20.24 4.02,38.95 11.99,56.2 7.98,17.19 17.12,31.63 27.45,43.27 1.88,2.01 4.02,4.2 6.38,6.47 2.31,2.26 4.9,4.68 7.7,7.22 8.02,6.56 17.65,12.66 28.93,18.23 11.27,5.52 23.48,8.34 36.63,8.34 11.27,0 21.34,-1.66 30.31,-4.95 8.91,-3.3 15.94,-6.95 21.12,-11l9.84 12.17c-3.3,3.03 -6.46,5.93 -9.49,8.73 -3.08,2.77 -6.01,5.71 -8.83,8.74 -6.1,5.57 -11.85,11 -17.24,16.31 -5.43,5.31 -10.91,10.51 -16.57,15.55 -10.79,10.12 -21.93,18.36 -33.48,24.69 -11.5,6.33 -24.78,9.5 -39.8,9.5l-3.88 0c-1.15,0 -2.45,-0.26 -3.88,-0.76 -12.2,-1.02 -23.93,-4.81 -35.21,-11.41 -11.27,-6.56 -21.16,-13.91 -29.59,-22.02 -1.43,-1.52 -2.72,-2.89 -3.88,-4.14 -1.2,-1.29 -2.5,-2.68 -3.88,-4.19 -2.36,-2.54 -5.31,-5.84 -8.82,-9.89 -3.52,-4 -6.91,-8.82 -10.21,-14.39 -6.59,-10.17 -12.57,-22.28 -17.96,-36.46 -5.39,-14.18 -8.11,-29.64 -8.11,-46.35 0,-21.76 3.52,-41.01 10.56,-57.71 7.04,-16.68 14.79,-30.85 23.27,-42.52 3.3,-4.55 6.46,-8.73 9.49,-12.52 3.07,-3.79 6.02,-7.22 8.82,-10.26 3.75,-4.06 8.21,-8.6 13.38,-13.68 5.17,-5.03 10.83,-10.11 16.93,-15.15 11.72,-10.16 24.78,-19.52 39.09,-28.12 14.35,-8.6 29.02,-13.68 44.04,-15.2l3.16 0 3.88 0c2.36,0 4.72,0.13 7.04,0.41 2.36,0.21 4.72,0.62 7.09,1.11 15.96,2.54 30.63,9.49 44.04,20.89 13.37,11.41 20.05,25.95 20.05,43.69 0,8.11 -1.64,14.8 -4.94,20.1 -3.26,5.29 -7,10.24 -11.23,14.83 -7.53,8.07 -19.74,18.86 -36.69,32.26 -16.89,13.42 -35.92,27.19 -57.04,41.36 -3.75,2.54 -7.53,5.08 -11.28,7.62 -3.74,2.55 -7.53,5.04 -11.27,7.58l0 -0.76z"/>
   <path class="fil0" d="M7711.87 3003.02c-0.44,-1.52 -0.94,-3.57 -1.43,-6.06 -0.44,-2.54 -1.15,-5.08 -2.08,-7.62 -2.36,-9.09 -5.76,-17.56 -10.21,-25.41 -4.46,-7.89 -10.7,-11.81 -18.67,-11.81 -15.52,0 -25.06,9.4 -28.53,28.12 -3.56,18.72 -5.31,44.52 -5.31,77.45 0,4.06 0.14,9.98 0.35,17.83 0.23,7.84 0.35,16.59 0.35,26.21l0 6.05 0 6.11c0.46,7.09 0.67,14.3 0.67,21.61l0 19.38 -82.41 52.41 0 -82.05c0,-2.49 -0.26,-12.52 -0.71,-29.99 -0.49,-17.47 -1.43,-36.32 -2.8,-56.56 -0.93,-19.73 -2.59,-38.1 -4.95,-55.08 -2.36,-16.93 -5.17,-27.45 -8.46,-31.51 -0.93,-0.98 -2.32,-1.87 -4.19,-2.63 -1.91,-0.76 -3.79,-1.43 -5.66,-1.92 -0.49,-0.49 -1.2,-0.76 -2.09,-0.76l-2.84 0c-1.39,0 -2.82,0.14 -4.2,0.41 -1.43,0.23 -2.85,0.62 -4.23,1.11 -2.86,0.53 -5.66,1.38 -8.46,2.68 -2.82,1.25 -5.66,2.89 -8.48,4.94l-7.04 -18.35c6.1,-3.56 13.28,-8.6 21.48,-14.93 8.25,-6.33 16.8,-12.93 25.72,-19.52 0.94,-0.98 1.87,-1.87 2.85,-2.63 0.94,-0.76 2.1,-1.65 3.52,-2.8 13.15,-9.63 25.58,-18.46 37.3,-26.3 11.76,-7.97 20.68,-11.9 26.78,-11.9 10.35,0 17.17,5.66 20.46,17.07 3.3,11.41 4.94,25.46 4.94,42.17l0 27.31c3.26,-3.03 6.56,-6.59 9.85,-10.65 3.3,-4 6.82,-7.85 10.56,-11.37 2.8,-3.51 5.89,-6.95 9.13,-10.25 3.3,-3.3 6.59,-6.73 9.89,-10.24 12.22,-11.63 23.85,-21.79 34.85,-30.39 11.05,-8.6 19.16,-12.89 24.33,-12.89 10.35,0 18.46,4.41 24.29,13.41 5.87,8.83 10.47,18.72 13.77,29.46 1.87,6.59 3.47,13.06 4.9,19.11 1.43,6.11 2.59,11.28 3.52,15.34l-76.8 65.43z"/>
   <path class="fil0" d="M7953.59 2965.22l0 -1.92c0,-0.76 -0.21,-1.38 -0.7,-1.87 -0.46,-4.06 -1.61,-7.97 -3.53,-11.76 -1.87,-3.83 -3.96,-7.22 -6.33,-10.24 0,-0.54 -0.13,-0.9 -0.35,-1.16 -0.23,-0.23 -0.58,-0.63 -1.07,-1.11 -0.89,-1.04 -1.96,-2.06 -3.16,-3.08 -1.16,-0.98 -2.68,-2.01 -4.55,-3.04 -3.3,-2.54 -7.09,-4.81 -11.28,-6.81 -4.23,-2.06 -8.69,-3.57 -13.4,-4.55 -1.39,-0.54 -3.03,-0.9 -4.95,-1.16 -1.87,-0.27 -3.74,-0.41 -5.62,-0.41 -5.61,0 -10.69,1.16 -15.15,3.44 -4.46,2.27 -6.69,6.19 -6.69,11.76 0,6.11 0.85,10.93 2.45,14.44 1.64,3.56 4.14,6.59 7.39,9.13 8.02,9.09 17.61,15.92 28.88,20.5 11.28,4.55 22.83,8.33 34.55,11.37 2.35,0.53 4.94,1.17 7.74,1.91 2.82,0.76 5.39,1.39 7.76,1.88 11.28,2.54 21.84,5.48 31.69,8.73 9.91,3.3 18.1,8.25 24.7,14.85 0.44,0.49 0.94,1.11 1.38,1.87 0.49,0.76 0.98,1.37 1.43,1.92 3.3,4.55 6.24,9.63 8.83,15.2 2.57,5.52 3.86,11.85 3.86,18.98 0,8.06 -1.29,15.55 -3.86,22.36 -2.59,6.82 -5.31,12.53 -8.11,17.08 -1.89,2.54 -3.53,4.72 -4.95,6.46 -1.38,1.78 -2.59,3.17 -3.53,4.19 -2.8,3.03 -9.04,9 -18.67,17.87 -9.63,8.83 -20.77,18.31 -33.46,28.48 -4.23,3.52 -8.78,7.04 -13.73,10.6 -4.94,3.52 -9.75,7.09 -14.44,10.65 -11.27,7.58 -22.32,13.91 -33.11,18.95 -10.83,5.08 -20.19,7.62 -28.21,7.62 -18.32,0 -34.05,-4.55 -47.2,-13.68 -13.15,-9.1 -22.06,-19.48 -26.78,-31.15 -0.94,-2.5 -1.74,-5.17 -2.45,-7.93 -0.72,-2.81 -1.07,-5.43 -1.07,-7.97 0,-11.14 4.6,-20.64 13.77,-28.49 9.13,-7.85 19.13,-15.06 29.95,-21.65 0.89,-0.49 1.73,-1.11 2.45,-1.87 0.7,-0.76 1.52,-1.43 2.45,-1.92 4.23,-2.54 8.46,-5.17 12.66,-7.98 4.23,-2.75 8.02,-5.7 11.32,-8.73 0,16.71 4.55,32.05 13.72,45.95 9.15,13.91 25.02,20.91 47.56,20.91 9.84,0 17.02,-2.19 21.48,-6.47 4.46,-4.32 6.69,-9.75 6.69,-16.36 0,-18.18 -8.2,-31.23 -24.65,-39.07 -16.43,-7.85 -34.54,-14.58 -54.23,-20.1 -19.74,-5.62 -37.83,-12.44 -54.23,-20.56 -16.45,-8.06 -24.7,-21.74 -24.7,-40.99 0,-10.12 1.52,-18.46 4.6,-25.06 3.04,-6.59 6.24,-12.17 9.49,-16.71 1.43,-1.52 2.85,-3.03 4.23,-4.55 1.43,-1.52 2.59,-2.8 3.52,-3.78 3.3,-3.57 9.28,-9.28 17.96,-17.12 8.73,-7.85 18.44,-16.04 29.24,-24.65 4.23,-3.07 8.6,-6.24 13.05,-9.48 4.46,-3.3 9.06,-6.47 13.73,-9.5 10.83,-7.09 21.26,-13.19 31.38,-18.23 10.07,-5.08 18.89,-7.62 26.43,-7.62 18.76,0 35.91,4.81 51.43,14.44 15.46,9.63 23.22,21 23.22,34.19 0,2.01 -0.37,4.14 -1.04,6.46 -0.7,2.27 -2,4.14 -3.86,5.66 -3.75,4.06 -10.57,9.5 -20.47,16.36 -9.84,6.82 -20.4,14.04 -31.68,21.61 -0.94,0.53 -2.01,1.16 -3.16,1.92 -1.21,0.76 -2.24,1.64 -3.17,2.67 -2.36,1.52 -4.59,3.03 -6.73,4.55 -2.09,1.52 -4.32,3.03 -6.69,4.55l0 -0.76z"/>
   <path class="fil1" d="M4213.1 2520.02c30.34,16.4 59.19,26.61 86.41,30.35 27.63,4.1 53.08,1.65 76.43,-7.22 32.41,-12.22 55.31,-32.89 68.5,-61.69 13.24,-28.83 13.47,-59.77 1.04,-92.74 -15.25,-40.29 -60.3,-51.22 -156.61,-85.67l-13.5 -4.9c-76.26,-27.22 -85.07,-29.5 -114.54,-51.56 -29.42,-22.11 -48.04,-42.17 -61.14,-76.71 -19.13,-50.39 -17.03,-80.79 3.56,-126.12 20.5,-45.19 58.92,-80.09 116.68,-97.55 8.15,22.23 10.25,27.31 21.83,58.87 -25.23,1.2 -47.2,13.01 -63.69,33.73 -16.62,20.73 -35.03,58.02 -7.35,103.75 14.76,24.3 59.1,46.35 68.27,50.09 9.28,3.65 80.8,31.47 101.57,38.07 21.84,6.94 78.7,24.65 111.29,44.87 23.22,14.49 59.36,45.73 73.62,83.07 21.44,56.83 25.09,107.06 3.21,157.46 -21.93,50.41 -60.61,86.15 -115.83,107.04 -20.68,7.9 -41.98,12.53 -64.09,14.09 -5.7,32.9 -6.33,62.53 -1.78,89 4.78,27.45 14.93,50.99 30.44,70.38 21.83,27.14 48.44,42.47 79.96,46.04 31.54,3.7 60.97,-5.53 88.51,-27.54 33.64,-26.97 30.08,-73.27 33.2,-175.55l0.44 -14.31c2.24,-80.93 1.69,-90.02 13.68,-124.78 11.86,-34.91 25.14,-58.83 53.97,-81.78 42.03,-33.87 71.58,-41.4 121,-35.83 49.38,5.66 94.39,31.33 128.85,80.84 -18.59,14.75 -22.81,18.23 -49.21,39.12 -8.96,-23.7 -27,-40.85 -51.78,-50.27 -24.77,-9.36 -66.01,-15.23 -100.9,25.05 -18.62,21.65 -25.76,70.69 -26.52,80.63 -0.7,9.75 -5.03,86.41 -4.9,108.15 0.23,22.91 0.94,82.49 -8.29,119.76 -6.59,26.56 -25.09,70.77 -56.29,95.69 -47.29,37.96 -93.99,57 -148.63,51.73 -54.81,-5.3 -100.72,-31.02 -137.66,-77.01 -17.16,-21.52 -30.13,-45.54 -38.91,-72.15 -8.73,-26.57 -12.66,-53.48 -11.9,-80.75l82.46 -66.15c-4.06,0.23 -8.11,0.31 -12.22,0.37 -28.03,0.04 -54.81,-4.51 -80.44,-13.68l-38.99 -102.91c-1.6,7.35 -3.61,14.76 -5.98,22.06 -8.51,26.57 -21.12,50.63 -37.83,72.2l-106.79 5.13c6.59,3.83 13.01,8.02 19.34,12.57 22.64,16.48 41.67,35.91 57.05,58.38l-28.35 103.79c2.36,-1.91 4.78,-3.74 7.26,-5.57 22.64,-16.48 46.93,-28.56 73.04,-36.14l93.69 61.42c-34.54,4.5 -64.26,13.37 -88.87,26.34 -24.69,13.01 -43.76,29.94 -57.44,50.76 -19.08,28.97 -25.5,59.1 -19.17,90.11 6.28,31.15 24.15,56.37 53.56,75.72 36.06,23.61 79.07,5.87 177.2,-22.6l13.77 -4.11c77.63,-22.85 86.06,-26.24 122.96,-25.67 36.72,0.63 63.73,5.89 94.52,25.98 45.06,29.78 61.33,55.54 71.22,104.2 9.98,48.75 -0.63,99.47 -37.07,147.47 -19.61,-13.01 -24.3,-16.05 -52.24,-34.63 19.66,-15.91 30.54,-38.33 31.77,-64.84 1.21,-26.38 -5.93,-67.43 -55.03,-88.14 -26.3,-11.06 -75.14,-2.77 -84.77,-0.41 -9.63,2.49 -83.83,21.92 -104.52,28.88 -21.7,7.3 -78.17,26.34 -116.4,29.15 -27.36,1.92 -75.02,-2.05 -108.34,-24.03 -50.78,-33.24 -83.3,-71.65 -95.15,-125.5 -11.99,-53.7 -1.69,-105.22 30.8,-154.64 12.83,-19.61 28.51,-36.95 46.88,-51.93 -14.7,-30.34 -31.91,-55.08 -51.39,-74.03 -19.96,-19.43 -41.93,-32.39 -65.99,-38.95 -33.48,-9.09 -64.09,-5.93 -91.68,9.63 -27.63,15.6 -46.04,40.43 -55.39,74.52 -11.32,41.4 18.67,76.82 76.29,161.24l8.07 12.04c45.82,66.84 51.57,73.66 62.35,109 10.87,35.08 14.17,62.4 4.46,97.97 -14.21,52 -33.69,75.5 -76.96,99.95 -43.28,24.52 -94.83,30.18 -151.75,10.26 6.42,-22.78 7.74,-28.03 16.84,-60.3 21.17,13.72 45.86,16.98 71.44,10.16 25.5,-7.18 62.35,-26.57 66.85,-79.69 2.31,-28.42 -20.64,-72.32 -25.85,-80.71 -5.22,-8.37 -46.76,-73.08 -59.68,-90.41 -13.69,-18.46 -49.24,-66.27 -63.65,-101.75 -10.3,-25.45 -21.21,-71.93 -10.74,-110.49 15.96,-58.61 42.43,-101.34 89.94,-129.29 47.37,-27.98 99.56,-34.08 156.61,-18.58 18.06,4.95 35.21,12.04 51.47,21.12 24.34,-23.4 42.47,-47.28 54.42,-71.57 12.3,-25.05 17.87,-49.91 16.72,-74.74 -1.69,-34.77 -14.18,-62.85 -37.62,-84.28 -23.26,-21.49 -52.59,-31.38 -87.79,-29.72 -43.02,2.05 -67.39,41.57 -130.01,122.41l-8.83 11.32c-49.33,64.18 -54.19,71.89 -84.36,93.06 -30.08,21.17 -55.03,32.72 -91.76,34.45 -53.97,2.64 -82.23,-8.68 -118.9,-42.25 -36.64,-33.64 -58.04,-80.93 -56.74,-141.19 23.71,-0.99 29.15,-1.34 62.7,-2.63 -6.59,24.42 -2.08,48.93 12.44,71.09 14.53,22.15 44.43,51.11 96.35,39.04 27.75,-6.64 62.39,-41.98 68.71,-49.56 6.47,-7.53 54.96,-67.03 67.61,-84.72 13.33,-18.67 47.73,-67.3 77.19,-92.07 20.85,-17.56 61.81,-42.2 101.71,-44.26 60.56,-2.89 109.54,9.18 150.76,45.59 41.09,36.51 63.15,84.19 65.96,143.25 0.93,19.43 -0.62,38.72 -4.67,57.85z"/>
  </g>
 </g>
</svg>
