<svg width="800px" height="800px" viewBox="0 0 24 24" fill="none" xmlns="http://www.w3.org/2000/svg">
<path d="M12 22C17.5228 22 22 17.5228 22 12C22 6.47715 17.5228 2 12 2C6.47715 2 2 6.47715 2 12C2 13.995 2.57348 15.8999 3.57783 17.5337L2.21294 21.1899C2.07712 21.5638 2.43438 21.9211 2.80825 21.7853L6.46447 20.4205C8.10091 21.4281 9.99816 22 12 22Z" stroke="#1C274C" stroke-width="1.5"/>
<path d="M8 7.5C8 7.5 8.5 7 12 7C15.5 7 16 7.5 16 7.5" stroke="#1C274C" stroke-width="1.5" stroke-linecap="round"/>
<path d="M7.5 10C7.5 10 8 9.5 12 9.5C16 9.5 16.5 10 16.5 10" stroke="#1C274C" stroke-width="1.5" stroke-linecap="round"/>
<path d="M7 12.5C7 12.5 7.5 12 12 12C16.5 12 17 12.5 17 12.5" stroke="#1C274C" stroke-width="1.5" stroke-linecap="round"/>
</svg>