<svg width="24" height="24" viewBox="0 0 24 24" fill="none" xmlns="http://www.w3.org/2000/svg">
<path d="M12 2C6.48 2 2 6.48 2 12C2 17.52 6.48 22 12 22C17.52 22 22 17.52 22 12C22 6.48 17.52 2 12 2ZM12 20C7.59 20 4 16.41 4 12C4 7.59 7.59 4 12 4C16.41 4 20 7.59 20 12C20 16.41 16.41 20 12 20ZM15.5 11H13V8.5C13 8.22 12.78 8 12.5 8H11.5C11.22 8 11 8.22 11 8.5V11H8.5C8.22 11 8 11.22 8 11.5V12.5C8 12.78 8.22 13 8.5 13H11V15.5C11 15.78 11.22 16 11.5 16H12.5C12.78 16 13 15.78 13 15.5V13H15.5C15.78 13 16 12.78 16 12.5V11.5C16 11.22 15.78 11 15.5 11Z" fill="#D4AF37"/>
</svg>